<?xml version="1.0" standalone="no"?>
<!DOCTYPE svg PUBLIC "-//W3C//DTD SVG 20010904//EN"
 "http://www.w3.org/TR/2001/REC-SVG-20010904/DTD/svg10.dtd">
<svg version="1.0" xmlns="http://www.w3.org/2000/svg"
 width="1634.000000pt" height="299.000000pt" viewBox="0 0 1634.000000 299.000000"
 preserveAspectRatio="xMidYMid meet">

<g transform="translate(0.000000,299.000000) scale(0.100000,-0.100000)"
fill="#000000" stroke="none">
<path d="M14840 2599 c-86 -9 -141 -24 -225 -63 -334 -156 -488 -530 -358
-872 45 -118 183 -269 308 -339 119 -67 203 -89 340 -89 149 0 204 12 330 73
206 100 355 294 385 498 19 131 13 209 -23 314 -46 132 -76 180 -176 279 -92
91 -175 140 -296 175 -74 22 -199 32 -285 24z m237 -105 c-3 -3 -12 -4 -19 -1
-8 3 -5 6 6 6 11 1 17 -2 13 -5z m-437 -39 c-7 -9 -15 -13 -18 -10 -3 2 1 11
8 20 7 9 15 13 18 10 3 -2 -1 -11 -8 -20z m310 -10 c0 -8 -9 -15 -20 -15 -25
0 -26 17 -2 23 9 3 18 5 20 6 1 0 2 -6 2 -14z m120 -5 c0 -5 -5 -10 -11 -10
-5 0 -7 5 -4 10 3 6 8 10 11 10 2 0 4 -4 4 -10z m-370 -20 c0 -5 -5 -10 -11
-10 -5 0 -7 5 -4 10 3 6 8 10 11 10 2 0 4 -4 4 -10z m590 -10 c0 -5 -4 -10
-10 -10 -5 0 -10 5 -10 10 0 6 5 10 10 10 6 0 10 -4 10 -10z m35 -60 c3 -5 -1
-10 -10 -10 -9 0 -13 5 -10 10 3 6 8 10 10 10 2 0 7 -4 10 -10z m60 0 c3 -5 1
-10 -4 -10 -6 0 -11 5 -11 10 0 6 2 10 4 10 3 0 8 -4 11 -10z m-385 -10 c87
-14 159 -50 231 -117 73 -68 103 -118 123 -203 21 -88 20 -148 -5 -222 -41
-127 -130 -221 -259 -275 -58 -24 -78 -27 -175 -27 -103 0 -114 2 -179 32 -96
45 -204 154 -235 237 -47 125 -37 243 30 357 65 111 149 173 282 208 85 22
101 23 187 10z m255 -18 c-3 -3 -11 0 -18 7 -9 10 -8 11 6 5 10 -3 15 -9 12
-12z m-685 -47 c0 -12 -19 -12 -23 0 -4 9 -1 12 9 8 7 -3 14 -7 14 -8z m-115
-15 c-3 -5 -14 -10 -23 -10 -15 0 -15 2 -2 10 20 13 33 13 25 0z m-10 -40 c3
-5 1 -10 -4 -10 -6 0 -11 5 -11 10 0 6 2 10 4 10 3 0 8 -4 11 -10z m-51 -6
c25 -10 19 -22 -9 -16 -14 2 -22 8 -19 13 6 11 8 11 28 3z m-38 -100 c-9 -25
-24 -7 -18 22 4 23 6 24 14 10 5 -10 7 -24 4 -32z m1089 6 c3 -5 1 -10 -4 -10
-6 0 -11 5 -11 10 0 6 2 10 4 10 3 0 8 -4 11 -10z m-1118 -77 c-8 -7 -37 9
-31 19 3 5 12 4 20 -3 8 -6 13 -14 11 -16z m1143 -73 c0 -5 -4 -10 -10 -10 -5
0 -10 5 -10 10 0 6 5 10 10 10 6 0 10 -4 10 -10z m10 -35 c0 -8 -4 -15 -9 -15
-13 0 -22 16 -14 24 11 11 23 6 23 -9z m22 -47 c-7 -7 -12 -8 -12 -2 0 14 12
26 19 19 2 -3 -1 -11 -7 -17z m-1127 2 c3 -5 1 -10 -4 -10 -6 0 -11 5 -11 10
0 6 2 10 4 10 3 0 8 -4 11 -10z m1052 -62 c-3 -7 -5 -2 -5 12 0 14 2 19 5 13
2 -7 2 -19 0 -25z m-1087 12 c0 -5 -2 -10 -4 -10 -3 0 -8 5 -11 10 -3 6 -1 10
4 10 6 0 11 -4 11 -10z m-10 -50 c0 -5 -7 -10 -16 -10 -8 0 -12 5 -9 10 3 6
10 10 16 10 5 0 9 -4 9 -10z m1160 0 c0 -5 -5 -10 -11 -10 -5 0 -7 5 -4 10 3
6 8 10 11 10 2 0 4 -4 4 -10z m-1100 -16 c0 -2 -7 -4 -15 -4 -8 0 -15 4 -15
10 0 5 7 7 15 4 8 -4 15 -8 15 -10z m-20 -44 c0 -5 -2 -10 -4 -10 -3 0 -8 5
-11 10 -3 6 -1 10 4 10 6 0 11 -4 11 -10z m-3 -36 c-3 -3 -12 -4 -19 -1 -8 3
-5 6 6 6 11 1 17 -2 13 -5z m1023 -39 c-7 -9 -15 -13 -17 -11 -7 7 7 26 19 26
6 0 6 -6 -2 -15z m-964 -40 c-20 -15 -36 -19 -36 -10 0 5 38 23 50 24 3 0 -4
-6 -14 -14z m55 -62 c-8 -15 -10 -15 -11 -2 0 17 10 32 18 25 2 -3 -1 -13 -7
-23z m874 -13 c3 -5 1 -10 -4 -10 -6 0 -11 5 -11 10 0 6 2 10 4 10 3 0 8 -4
11 -10z m-95 -34 c0 -3 -4 -8 -10 -11 -5 -3 -10 -1 -10 4 0 6 5 11 10 11 6 0
10 -2 10 -4z m-720 -10 c0 -11 -19 -15 -25 -6 -3 5 1 10 9 10 9 0 16 -2 16 -4z
m747 -28 c-3 -8 -6 -5 -6 6 -1 11 2 17 5 13 3 -3 4 -12 1 -19z m-167 -12 c0
-3 -4 -8 -10 -11 -5 -3 -10 -1 -10 4 0 6 5 11 10 11 6 0 10 -2 10 -4z m-460
-40 c0 -13 -38 -15 -57 -3 -7 5 -13 13 -13 19 0 7 5 6 15 -2 12 -10 16 -9 21
4 5 13 9 14 20 5 8 -6 14 -17 14 -23z m523 6 c-5 -22 -23 -31 -23 -12 0 10 23
40 27 36 1 -1 0 -12 -4 -24z m-466 12 c-3 -3 -12 -4 -19 -1 -8 3 -5 6 6 6 11
1 17 -2 13 -5z m493 -24 c0 -5 -4 -10 -10 -10 -5 0 -10 5 -10 10 0 6 5 10 10
10 6 0 10 -4 10 -10z m-400 -10 c0 -5 -4 -10 -10 -10 -5 0 -10 5 -10 10 0 6 5
10 10 10 6 0 10 -4 10 -10z m300 0 c0 -5 -5 -10 -11 -10 -5 0 -7 5 -4 10 3 6
8 10 11 10 2 0 4 -4 4 -10z m-110 -20 c0 -5 -4 -10 -10 -10 -5 0 -10 5 -10 10
0 6 5 10 10 10 6 0 10 -4 10 -10z m-210 -44 c0 -3 -4 -8 -10 -11 -5 -3 -10 -1
-10 4 0 6 5 11 10 11 6 0 10 -2 10 -4z m185 -16 c3 -5 2 -10 -4 -10 -5 0 -13
5 -16 10 -3 6 -2 10 4 10 5 0 13 -4 16 -10z m47 -12 c-7 -7 -12 -8 -12 -2 0
14 12 26 19 19 2 -3 -1 -11 -7 -17z"/>
<path d="M13970 2564 c-22 -5 -595 -34 -677 -34 -84 0 -97 -11 -81 -69 6 -20
8 -66 4 -102 -7 -83 1 -93 70 -80 27 5 90 12 141 16 l91 6 6 -83 c4 -46 15
-267 26 -493 26 -531 24 -514 41 -530 11 -11 34 -13 107 -8 51 3 99 11 106 17
16 12 18 -34 -23 725 -11 206 -18 377 -16 379 2 3 68 6 146 8 79 2 146 7 151
12 4 4 3 35 -3 68 -6 32 -9 80 -6 105 4 28 1 51 -6 58 -10 10 -44 13 -77 5z
m-250 -80 c0 -3 -5 -15 -12 -27 -11 -21 -11 -21 -18 -2 -4 11 -2 23 4 27 13 9
26 10 26 2z m-202 -29 c-8 -8 -48 8 -42 16 3 5 14 4 25 -2 12 -6 19 -12 17
-14z m427 15 c3 -5 1 -10 -4 -10 -6 0 -11 5 -11 10 0 6 2 10 4 10 3 0 8 -4 11
-10z m-385 -60 c0 -5 -2 -10 -4 -10 -3 0 -8 5 -11 10 -3 6 -1 10 4 10 6 0 11
-4 11 -10z m-203 -32 c-3 -8 -6 -5 -6 6 -1 11 2 17 5 13 3 -3 4 -12 1 -19z
m100 -20 c-3 -8 -6 -5 -6 6 -1 11 2 17 5 13 3 -3 4 -12 1 -19z m193 -138 c0
-5 -4 -10 -9 -10 -6 0 -13 5 -16 10 -3 6 1 10 9 10 9 0 16 -4 16 -10z m50 -80
c0 -5 -2 -10 -4 -10 -3 0 -8 5 -11 10 -3 6 -1 10 4 10 6 0 11 -4 11 -10z m-50
-20 c0 -5 -5 -10 -11 -10 -5 0 -7 5 -4 10 3 6 8 10 11 10 2 0 4 -4 4 -10z m30
-165 c0 -2 -10 -10 -22 -16 -21 -11 -22 -11 -9 4 13 16 31 23 31 12z m-19
-208 c-1 -12 -15 -9 -19 4 -3 6 1 10 8 8 6 -3 11 -8 11 -12z m34 -77 c3 -5 1
-10 -4 -10 -6 0 -11 5 -11 10 0 6 2 10 4 10 3 0 8 -4 11 -10z m-22 -255 c-6
-17 -25 -15 -31 3 -2 7 5 12 17 12 14 0 19 -5 14 -15z m67 5 c0 -5 -4 -10 -10
-10 -5 0 -10 5 -10 10 0 6 5 10 10 10 6 0 10 -4 10 -10z m0 -40 c0 -5 -2 -10
-4 -10 -3 0 -8 5 -11 10 -3 6 -1 10 4 10 6 0 11 -4 11 -10z m-93 -46 c-3 -3
-12 -4 -19 -1 -8 3 -5 6 6 6 11 1 17 -2 13 -5z"/>
<path d="M12948 2510 c-43 -4 -223 -13 -400 -20 -178 -6 -329 -14 -337 -16
-10 -3 -12 -16 -7 -52 11 -92 57 -941 61 -1133 1 -86 6 -162 10 -169 5 -8 21
-10 48 -6 63 10 759 45 788 39 36 -7 53 16 39 53 -6 16 -10 64 -9 107 3 86 -5
101 -51 92 -27 -5 -249 -20 -456 -31 l-131 -6 -6 98 c-4 55 -7 124 -7 155 l0
57 88 7 c48 3 140 7 205 8 79 1 121 5 128 13 7 9 6 27 -2 56 -6 25 -9 68 -5
104 9 84 1 89 -106 75 -46 -5 -137 -13 -204 -16 l-121 -7 -6 108 c-9 146 -9
214 2 214 5 0 123 7 262 16 140 9 275 13 301 10 64 -7 72 5 58 86 -6 34 -9 86
-8 113 3 49 3 50 -27 51 -16 1 -65 -2 -107 -6z m-108 -80 c0 -5 -2 -10 -4 -10
-3 0 -8 5 -11 10 -3 6 -1 10 4 10 6 0 11 -4 11 -10z m45 -10 c3 -5 -1 -10 -9
-10 -9 0 -16 5 -16 10 0 6 4 10 9 10 6 0 13 -4 16 -10z m-325 -20 c0 -5 -7
-10 -16 -10 -8 0 -12 5 -9 10 3 6 10 10 16 10 5 0 9 -4 9 -10z m-170 -20 c0
-5 -5 -10 -11 -10 -5 0 -7 5 -4 10 3 6 8 10 11 10 2 0 4 -4 4 -10z m450 -2 c0
-4 -9 -8 -21 -8 -11 0 -18 4 -15 8 3 5 12 9 21 9 8 0 15 -4 15 -9z m-510 -8
c0 -5 -2 -10 -4 -10 -3 0 -8 5 -11 10 -3 6 -1 10 4 10 6 0 11 -4 11 -10z m623
-10 c3 -11 1 -20 -4 -20 -5 0 -9 9 -9 20 0 11 2 20 4 20 2 0 6 -9 9 -20z
m-463 -30 c0 -5 -2 -10 -4 -10 -3 0 -8 5 -11 10 -3 6 -1 10 4 10 6 0 11 -4 11
-10z m21 -27 c-8 -15 -10 -15 -11 -2 0 17 10 32 18 25 2 -3 -1 -13 -7 -23z
m-174 -15 c-3 -8 -6 -5 -6 6 -1 11 2 17 5 13 3 -3 4 -12 1 -19z m73 -44 c0 -8
-4 -12 -10 -9 -5 3 -10 10 -10 16 0 5 5 9 10 9 6 0 10 -7 10 -16z m-70 -8 c0
-3 -4 -8 -10 -11 -5 -3 -10 -1 -10 4 0 6 5 11 10 11 6 0 10 -2 10 -4z m-20
-131 c0 -8 -2 -15 -4 -15 -2 0 -6 7 -10 15 -3 8 -1 15 4 15 6 0 10 -7 10 -15z
m0 -65 c0 -5 -2 -10 -4 -10 -3 0 -8 5 -11 10 -3 6 -1 10 4 10 6 0 11 -4 11
-10z m80 -56 c0 -6 -11 -14 -24 -16 -21 -4 -23 -2 -14 12 12 19 38 22 38 4z
m-33 -120 c-3 -3 -12 -4 -19 -1 -8 3 -5 6 6 6 11 1 17 -2 13 -5z m240 -36 c-3
-8 -6 -5 -6 6 -1 11 2 17 5 13 3 -3 4 -12 1 -19z m-137 -8 c0 -5 -4 -10 -9
-10 -6 0 -13 5 -16 10 -3 6 1 10 9 10 9 0 16 -4 16 -10z m90 -30 c0 -5 -5 -10
-11 -10 -5 0 -7 5 -4 10 3 6 8 10 11 10 2 0 4 -4 4 -10z m80 0 c0 -5 -5 -10
-11 -10 -5 0 -7 5 -4 10 3 6 8 10 11 10 2 0 4 -4 4 -10z m-35 -29 c-3 -6 -11
-11 -17 -11 -6 0 -6 6 2 15 14 17 26 13 15 -4z m-253 -13 c-7 -7 -12 -8 -12
-2 0 14 12 26 19 19 2 -3 -1 -11 -7 -17z m-26 -45 c-10 -10 -19 5 -10 18 6 11
8 11 12 0 2 -7 1 -15 -2 -18z m119 17 c3 -5 -1 -10 -9 -10 -9 0 -16 5 -16 10
0 6 4 10 9 10 6 0 13 -4 16 -10z m-63 -352 c-6 -6 -16 -7 -23 -3 -9 6 -7 12 7
22 21 15 34 -1 16 -19z m1 -64 c-6 -17 -23 -9 -23 11 0 8 6 12 14 9 8 -3 12
-12 9 -20z m377 -9 c0 -8 -4 -15 -10 -15 -5 0 -10 7 -10 15 0 8 5 15 10 15 6
0 10 -7 10 -15z m53 8 c-7 -2 -19 -2 -25 0 -7 3 -2 5 12 5 14 0 19 -2 13 -5z
m-417 -49 c-4 -9 -9 -15 -11 -12 -3 3 -3 13 1 22 4 9 9 15 11 12 3 -3 3 -13
-1 -22z m204 1 c0 -17 -4 -23 -15 -19 -11 5 -12 11 -4 25 13 26 19 24 19 -6z
m220 21 c0 -3 -4 -8 -10 -11 -5 -3 -10 -1 -10 4 0 6 5 11 10 11 6 0 10 -2 10
-4z m159 -50 c-13 -15 -19 -3 -12 24 6 22 7 22 14 4 3 -10 3 -23 -2 -28z m51
28 c0 -2 -7 -4 -15 -4 -8 0 -15 4 -15 10 0 5 7 7 15 4 8 -4 15 -8 15 -10z
m-485 -3 c3 -5 1 -12 -4 -15 -5 -3 -11 1 -15 9 -6 16 9 21 19 6z m309 -12 c-3
-5 -10 -7 -15 -3 -5 3 -7 10 -3 15 3 5 10 7 15 3 5 -3 7 -10 3 -15z m46 -10
c0 -5 -4 -9 -10 -9 -5 0 -10 7 -10 16 0 8 5 12 10 9 6 -3 10 -10 10 -16z m30
12 c0 -6 -4 -13 -10 -16 -5 -3 -10 1 -10 9 0 9 5 16 10 16 6 0 10 -4 10 -9z"/>
<path d="M11099 2414 c-6 -7 -5 -59 1 -135 13 -157 51 -892 55 -1066 1 -72 6
-136 10 -142 4 -8 26 -10 66 -5 32 4 85 7 116 8 l58 1 -1 35 c0 19 -7 146 -14
282 -7 137 -10 251 -7 255 4 3 16 -2 28 -13 26 -23 345 -415 396 -485 l36 -51
141 7 c78 4 143 9 145 11 10 9 -62 105 -234 315 -104 127 -198 241 -208 254
l-18 24 59 31 c225 120 286 353 136 520 -52 58 -143 115 -223 142 -60 20 -87
22 -299 23 -160 0 -237 -4 -243 -11z m355 -93 c3 -5 -1 -11 -9 -15 -15 -6 -29
7 -18 18 9 9 21 8 27 -3z m236 -21 c0 -5 -5 -10 -11 -10 -5 0 -7 5 -4 10 3 6
8 10 11 10 2 0 4 -4 4 -10z m-459 -17 c13 -15 12 -15 -8 -4 -24 12 -29 21 -14
21 5 0 15 -7 22 -17z m279 1 c0 -8 -5 -12 -10 -9 -6 4 -8 11 -5 16 9 14 15 11
15 -7z m-110 -24 c0 -5 -2 -10 -4 -10 -3 0 -8 5 -11 10 -3 6 -1 10 4 10 6 0
11 -4 11 -10z m260 -10 c0 -5 -2 -10 -4 -10 -3 0 -8 5 -11 10 -3 6 -1 10 4 10
6 0 11 -4 11 -10z m70 6 c0 -3 -4 -8 -10 -11 -5 -3 -10 -1 -10 4 0 6 5 11 10
11 6 0 10 -2 10 -4z m-490 -21 c0 -8 -7 -15 -15 -15 -16 0 -20 12 -8 23 11 12
23 8 23 -8z m292 -56 c78 -17 138 -48 159 -83 24 -40 17 -62 -36 -112 -51 -48
-122 -74 -222 -81 l-73 -6 0 55 c0 30 -3 96 -6 146 l-7 92 66 0 c36 0 90 -5
119 -11z m215 -5 c-3 -3 -12 -4 -19 -1 -8 3 -5 6 6 6 11 1 17 -2 13 -5z m89
-131 c-10 -10 -19 5 -10 18 6 11 8 11 12 0 2 -7 1 -15 -2 -18z m-576 -28 c0
-2 -3 -10 -6 -19 -5 -12 -10 -13 -25 -5 -26 14 -24 24 6 25 14 1 25 0 25 -1z
m496 -140 c-4 -14 -10 -25 -14 -25 -12 0 -10 44 2 52 15 10 19 2 12 -27z m-34
-67 c-7 -7 -12 -8 -12 -2 0 14 12 26 19 19 2 -3 -1 -11 -7 -17z m-335 -5 c3
-7 -4 -9 -16 -6 -12 3 -18 9 -15 15 7 11 26 6 31 -9z m38 -13 c-3 -5 -11 -10
-16 -10 -6 0 -7 5 -4 10 3 6 11 10 16 10 6 0 7 -4 4 -10z m-115 -20 c0 -5 -6
-10 -14 -10 -8 0 -18 5 -21 10 -3 6 3 10 14 10 12 0 21 -4 21 -10z m233 -4
c13 -11 15 -19 8 -37 -8 -20 -10 -21 -10 -5 -1 11 -8 28 -18 38 -19 21 -6 24
20 4z m-288 -26 c-3 -5 -13 -10 -21 -10 -8 0 -12 5 -9 10 3 6 13 10 21 10 8 0
12 -4 9 -10z m-15 -65 c0 -9 -6 -12 -15 -9 -8 4 -15 10 -15 15 0 5 7 9 15 9 8
0 15 -7 15 -15z m43 -26 c-4 -13 -9 -17 -15 -11 -11 11 -3 32 12 32 4 0 6 -9
3 -21z m247 -9 c0 -5 -2 -10 -4 -10 -3 0 -8 5 -11 10 -3 6 -1 10 4 10 6 0 11
-4 11 -10z m120 -14 c0 -3 -4 -8 -10 -11 -5 -3 -10 -1 -10 4 0 6 5 11 10 11 6
0 10 -2 10 -4z m-20 -30 c0 -11 -19 -15 -25 -6 -3 5 1 10 9 10 9 0 16 -2 16
-4z m-350 -21 c0 -8 -4 -15 -10 -15 -5 0 -7 7 -4 15 4 8 8 15 10 15 2 0 4 -7
4 -15z m320 -5 c0 -5 -4 -10 -10 -10 -5 0 -10 5 -10 10 0 6 5 10 10 10 6 0 10
-4 10 -10z m220 -160 c0 -5 -4 -10 -10 -10 -5 0 -10 5 -10 10 0 6 5 10 10 10
6 0 10 -4 10 -10z m-70 -24 c0 -3 -4 -8 -10 -11 -5 -3 -10 -1 -10 4 0 6 5 11
10 11 6 0 10 -2 10 -4z m-450 -191 c-7 -9 -15 -13 -19 -10 -3 3 1 10 9 15 21
14 24 12 10 -5z"/>
<path d="M10370 2373 c-59 -10 -160 -49 -224 -87 -209 -124 -336 -347 -336
-591 0 -382 304 -685 687 -685 128 0 211 21 344 88 133 67 139 76 84 148 -20
26 -47 69 -61 96 -13 26 -30 49 -37 49 -28 3 -43 -4 -64 -30 -26 -32 -120 -77
-190 -90 -71 -14 -184 3 -261 39 -81 38 -160 118 -204 207 -31 64 -33 73 -33
178 0 103 2 114 32 178 42 89 121 168 210 210 59 27 81 32 168 35 85 3 108 1
155 -18 30 -12 69 -32 87 -46 54 -41 80 -32 103 39 6 21 27 61 46 89 36 53 40
85 14 99 -30 17 -199 79 -242 89 -42 9 -227 12 -278 3z m152 -68 c3 -14 1 -25
-3 -25 -5 0 -9 11 -9 25 0 14 2 25 4 25 2 0 6 -11 8 -25z m-62 -15 c0 -5 -9
-10 -21 -10 -11 0 -17 5 -14 10 3 6 13 10 21 10 8 0 14 -4 14 -10z m300 -60
c0 -5 -8 -10 -17 -10 -15 0 -16 2 -3 10 19 12 20 12 20 0z m-460 -32 c0 -14
-18 -17 -28 -5 -8 10 -6 13 9 13 10 0 19 -4 19 -8z m-178 -80 c-9 -9 -12 -7
-12 10 0 12 -4 22 -10 22 -5 0 -10 6 -10 12 0 7 10 2 22 -10 17 -17 20 -24 10
-34z m-72 -79 c0 -10 -4 -19 -10 -19 -5 0 -10 12 -10 26 0 14 4 23 10 19 6 -3
10 -15 10 -26z m27 -21 c-3 -8 -6 -5 -6 6 -1 11 2 17 5 13 3 -3 4 -12 1 -19z
m-17 -38 c0 -5 -4 -10 -10 -10 -5 0 -10 5 -10 10 0 6 5 10 10 10 6 0 10 -4 10
-10z m0 -50 c0 -5 -2 -10 -4 -10 -3 0 -8 5 -11 10 -3 6 -1 10 4 10 6 0 11 -4
11 -10z m-80 -34 c0 -3 -4 -8 -10 -11 -5 -3 -10 -1 -10 4 0 6 5 11 10 11 6 0
10 -2 10 -4z m-50 -80 c0 -3 -4 -8 -10 -11 -5 -3 -10 -1 -10 4 0 6 5 11 10 11
6 0 10 -2 10 -4z m37 -152 c-2 -2 -13 -1 -25 3 -18 4 -20 8 -10 20 10 13 14
13 25 -3 7 -10 12 -19 10 -20z m43 -28 c0 -3 -4 -8 -10 -11 -5 -3 -10 -1 -10
4 0 6 5 11 10 11 6 0 10 -2 10 -4z m-90 -56 c0 -21 -15 -27 -25 -10 -7 12 2
30 16 30 5 0 9 -9 9 -20z m157 -202 c-3 -8 -6 -5 -6 6 -1 11 2 17 5 13 3 -3 4
-12 1 -19z m658 -178 c-3 -5 -12 -10 -18 -10 -7 0 -6 4 3 10 19 12 23 12 15 0z
m-110 -9 c3 -5 1 -12 -4 -15 -5 -3 -11 1 -15 9 -6 16 9 21 19 6z m108 -35 c4
-10 0 -12 -14 -9 -10 3 -16 9 -13 14 8 13 21 11 27 -5z m-323 -68 c0 -14 -18
-9 -24 8 -11 28 -6 39 9 20 8 -11 15 -23 15 -28z m90 32 c0 -5 -5 -10 -11 -10
-5 0 -7 5 -4 10 3 6 8 10 11 10 2 0 4 -4 4 -10z m76 -12 c-14 -23 -19 -22 -40
1 -17 19 -17 20 17 18 30 -2 33 -4 23 -19z"/>
<path d="M9598 2344 c-8 -7 -546 -33 -694 -34 -134 0 -142 -5 -125 -77 6 -27
18 -199 27 -383 9 -184 21 -438 28 -565 6 -126 9 -248 5 -270 -11 -63 3 -79
65 -72 49 6 594 35 746 40 l75 2 -2 35 c-2 19 -4 72 -5 118 -3 92 -11 105 -62
92 -43 -11 -564 -35 -573 -26 -7 7 -25 297 -19 303 2 2 98 7 212 11 l209 7 -1
33 c-3 196 -4 201 -24 212 -14 8 -38 8 -78 1 -31 -6 -119 -13 -194 -17 l-136
-7 -6 44 c-3 24 -8 96 -11 160 l-6 115 208 13 c114 7 257 14 317 16 119 3 131
9 114 57 -6 16 -8 63 -6 103 3 45 1 78 -6 85 -11 11 -49 14 -58 4z m-183 -84
c3 -5 1 -10 -4 -10 -6 0 -11 5 -11 10 0 6 2 10 4 10 3 0 8 -4 11 -10z m40 -10
c3 -5 1 -10 -4 -10 -6 0 -11 5 -11 10 0 6 2 10 4 10 3 0 8 -4 11 -10z m-185
-10 c0 -5 -5 -10 -11 -10 -5 0 -7 5 -4 10 3 6 8 10 11 10 2 0 4 -4 4 -10z
m-140 -14 c0 -3 -4 -8 -10 -11 -5 -3 -10 -1 -10 4 0 6 5 11 10 11 6 0 10 -2
10 -4z m-220 -26 c0 -5 -4 -10 -10 -10 -5 0 -10 5 -10 10 0 6 5 10 10 10 6 0
10 -4 10 -10z m497 4 c-3 -3 -12 -4 -19 -1 -8 3 -5 6 6 6 11 1 17 -2 13 -5z
m117 -19 c3 -8 1 -15 -4 -15 -6 0 -10 7 -10 15 0 8 2 15 4 15 2 0 6 -7 10 -15z
m-459 -25 c3 -5 2 -10 -4 -10 -5 0 -13 5 -16 10 -3 6 -2 10 4 10 5 0 13 -4 16
-10z m23 -24 c-7 -8 -15 -12 -17 -11 -5 6 10 25 20 25 5 0 4 -6 -3 -14z m-88
-10 c0 -2 -7 -6 -15 -10 -8 -3 -15 -1 -15 4 0 6 7 10 15 10 8 0 15 -2 15 -4z
m-15 -45 c3 -5 1 -12 -5 -16 -5 -3 -10 1 -10 9 0 18 6 21 15 7z m-75 -21 c0
-5 -2 -10 -4 -10 -3 0 -8 5 -11 10 -3 6 -1 10 4 10 6 0 11 -4 11 -10z m-14
-121 c3 -6 2 -15 -4 -21 -6 -6 -11 -2 -15 11 -5 22 7 29 19 10z m44 -19 c0 -5
-2 -10 -4 -10 -3 0 -8 5 -11 10 -3 6 -1 10 4 10 6 0 11 -4 11 -10z m40 -111
c0 -5 -4 -9 -9 -9 -5 0 -16 -3 -24 -6 -12 -4 -14 0 -10 14 3 14 11 18 24 15
10 -3 19 -9 19 -14z m-30 -113 c0 -11 -19 -15 -25 -6 -3 5 1 10 9 10 9 0 16
-2 16 -4z m93 -30 c4 -9 -5 -21 -19 -31 l-25 -16 16 24 c13 20 13 26 3 30 -9
4 -8 6 3 6 9 1 19 -5 22 -13z m57 -60 c0 -3 -4 -8 -10 -11 -5 -3 -10 -1 -10 4
0 6 5 11 10 11 6 0 10 -2 10 -4z m85 -16 c-3 -5 -14 -10 -23 -10 -15 0 -15 2
-2 10 20 13 33 13 25 0z m90 0 c-3 -5 -12 -10 -18 -10 -7 0 -6 4 3 10 19 12
23 12 15 0z m-340 -10 c-3 -5 -11 -10 -16 -10 -6 0 -7 5 -4 10 3 6 11 10 16
10 6 0 7 -4 4 -10z m-38 -52 c-3 -7 -5 -2 -5 12 0 14 2 19 5 13 2 -7 2 -19 0
-25z m133 16 c0 -2 -7 -4 -15 -4 -8 0 -15 4 -15 10 0 5 7 7 15 4 8 -4 15 -8
15 -10z m-63 -337 c-5 -17 -37 -21 -37 -5 0 8 9 14 21 15 12 1 19 -3 16 -10z
m-7 -67 c0 -5 -4 -12 -10 -15 -5 -3 -10 -4 -10 -1 0 2 -3 12 -6 20 -5 12 -2
15 10 10 9 -3 16 -10 16 -14z m470 0 c0 -5 -2 -10 -4 -10 -3 0 -8 5 -11 10 -3
6 -1 10 4 10 6 0 11 -4 11 -10z m-90 -21 c0 -5 -4 -9 -10 -9 -5 0 -10 7 -10
16 0 8 5 12 10 9 6 -3 10 -10 10 -16z m50 17 c0 -2 -9 -6 -20 -9 -11 -3 -18
-1 -14 4 5 9 34 13 34 5z m-412 -43 c-2 -9 -8 -18 -15 -20 -7 -3 -9 3 -6 16 6
25 26 28 21 4z m412 7 c0 -5 -5 -10 -11 -10 -5 0 -7 5 -4 10 3 6 8 10 11 10 2
0 4 -4 4 -10z m-212 -26 c2 -22 0 -24 -12 -14 -8 6 -12 18 -9 26 8 22 18 16
21 -12z m372 -28 c-7 -7 -10 1 -9 25 0 32 1 33 10 10 6 -16 6 -28 -1 -35z
m-430 23 c0 -6 -4 -7 -10 -4 -5 3 -10 11 -10 16 0 6 5 7 10 4 6 -3 10 -11 10
-16z m310 0 c0 -5 -4 -9 -10 -9 -5 0 -10 7 -10 16 0 8 5 12 10 9 6 -3 10 -10
10 -16z m37 -11 c-3 -8 -6 -5 -6 6 -1 11 2 17 5 13 3 -3 4 -12 1 -19z m43 13
c0 -6 -4 -13 -10 -16 -5 -3 -10 1 -10 9 0 9 5 16 10 16 6 0 10 -4 10 -9z
m-500 -41 c0 -5 -5 -10 -11 -10 -5 0 -7 5 -4 10 3 6 8 10 11 10 2 0 4 -4 4
-10z"/>
<path d="M8025 2265 c-206 -43 -350 -189 -363 -367 -10 -136 56 -258 185 -344
79 -53 159 -80 303 -100 83 -11 128 -23 163 -41 51 -28 87 -75 87 -114 0 -70
-95 -138 -206 -147 -100 -8 -151 11 -265 94 -56 41 -105 74 -108 74 -4 0 -20
-13 -35 -29 -15 -16 -50 -40 -77 -52 -27 -13 -51 -30 -54 -37 -14 -37 101
-175 189 -227 174 -102 396 -112 572 -26 108 54 166 106 206 189 30 60 33 75
33 157 0 79 -4 97 -29 150 -75 153 -238 250 -456 270 -102 10 -170 37 -214 85
-63 70 -42 136 62 187 50 25 68 28 147 27 132 0 185 -32 291 -171 l22 -27 40
36 c23 21 64 49 91 63 l50 25 -15 52 c-34 115 -137 205 -293 258 -83 28 -231
35 -326 15z m69 -97 c-4 -6 -10 -5 -15 3 -14 22 -10 33 6 19 8 -7 12 -17 9
-22z m166 -27 c0 -17 -5 -33 -12 -37 -8 -5 -9 0 -6 14 5 19 2 22 -25 22 l-32
1 30 14 c43 19 45 18 45 -14z m40 5 c0 -3 -4 -8 -10 -11 -5 -3 -10 -1 -10 4 0
6 5 11 10 11 6 0 10 -2 10 -4z m160 -16 c0 -5 -5 -10 -11 -10 -5 0 -7 5 -4 10
3 6 8 10 11 10 2 0 4 -4 4 -10z m-300 -29 c0 -5 -7 -11 -15 -15 -9 -3 -15 0
-15 9 0 8 7 15 15 15 8 0 15 -4 15 -9z m197 -33 c-3 -8 -6 -5 -6 6 -1 11 2 17
5 13 3 -3 4 -12 1 -19z m68 -27 c3 -5 1 -12 -5 -16 -5 -3 -10 1 -10 9 0 18 6
21 15 7z m55 -42 c0 -6 -4 -7 -10 -4 -5 3 -10 11 -10 16 0 6 5 7 10 4 6 -3 10
-11 10 -16z m-620 -113 c0 -3 -4 -8 -10 -11 -5 -3 -10 -1 -10 4 0 6 5 11 10
11 6 0 10 -2 10 -4z m-82 -88 c7 -7 12 -19 12 -27 0 -11 -4 -10 -20 4 -21 19
-26 35 -12 35 4 0 13 -5 20 -12z m552 -198 c0 -5 -7 -10 -16 -10 -8 0 -12 5
-9 10 3 6 10 10 16 10 5 0 9 -4 9 -10z m-80 -64 c0 -3 -4 -8 -10 -11 -5 -3
-10 -1 -10 4 0 6 5 11 10 11 6 0 10 -2 10 -4z m218 -55 c3 -8 -1 -12 -9 -9 -7
2 -15 10 -17 17 -3 8 1 12 9 9 7 -2 15 -10 17 -17z m82 -51 c0 -5 -4 -10 -10
-10 -5 0 -10 5 -10 10 0 6 5 10 10 10 6 0 10 -4 10 -10z m-85 -210 c-3 -5 -11
-10 -16 -10 -6 0 -7 5 -4 10 3 6 11 10 16 10 6 0 7 -4 4 -10z m19 -46 c9 -24
7 -28 -9 -14 -17 14 -20 30 -6 30 5 0 12 -7 15 -16z m-104 -86 c0 -19 -2 -20
-10 -8 -13 19 -13 30 0 30 6 0 10 -10 10 -22z m-440 -24 c0 -14 -3 -14 -15 -4
-8 7 -15 14 -15 16 0 2 7 4 15 4 8 0 15 -7 15 -16z m515 -4 c3 -5 1 -10 -4
-10 -6 0 -11 5 -11 10 0 6 2 10 4 10 3 0 8 -4 11 -10z m-465 -46 c0 -8 -5 -12
-10 -9 -6 4 -8 11 -5 16 9 14 15 11 15 -7z"/>
<path d="M5664 2142 c-11 -7 -33 -63 -220 -542 -58 -151 -152 -390 -207 -530
-55 -140 -100 -268 -101 -285 -1 -26 2 -30 24 -28 14 0 67 3 119 6 60 3 97 9
105 18 7 8 23 43 34 79 12 36 39 108 59 160 l38 95 105 6 c58 4 157 9 221 13
l115 6 80 -163 80 -162 117 1 c97 0 121 4 135 17 13 14 14 21 5 35 -29 42
-629 1207 -644 1252 -11 30 -39 40 -65 22z m96 -265 c0 -5 -4 -5 -10 -2 -5 3
-10 14 -10 23 0 15 2 15 10 2 5 -8 10 -19 10 -23z m-10 -47 c12 -7 12 -12 2
-22 -9 -9 -12 -9 -12 0 0 7 -10 17 -22 22 -21 8 -21 9 -3 9 11 0 27 -4 35 -9z
m73 -67 c-7 -2 -19 -2 -25 0 -7 3 -2 5 12 5 14 0 19 -2 13 -5z m-233 -60 c0
-22 -17 -50 -24 -42 -5 5 15 59 22 59 1 0 2 -8 2 -17z m294 -78 c3 -8 2 -15
-3 -15 -5 0 -14 7 -21 15 -10 12 -10 15 3 15 8 0 17 -7 21 -15z m-304 -25 c0
-5 -5 -10 -11 -10 -5 0 -7 5 -4 10 3 6 8 10 11 10 2 0 4 -4 4 -10z m250 -220
c0 -5 -47 -10 -105 -12 -69 -2 -105 1 -105 8 0 10 76 209 86 226 6 9 124 -203
124 -222z m20 179 c0 -6 -4 -7 -10 -4 -5 3 -10 11 -10 16 0 6 5 7 10 4 6 -3
10 -11 10 -16z m-230 7 c0 -3 -4 -8 -10 -11 -5 -3 -10 -1 -10 4 0 6 5 11 10
11 6 0 10 -2 10 -4z m-80 -66 c0 -5 -2 -10 -4 -10 -3 0 -8 5 -11 10 -3 6 -1
10 4 10 6 0 11 -4 11 -10z m-50 -30 c0 -5 -4 -10 -10 -10 -5 0 -10 5 -10 10 0
6 5 10 10 10 6 0 10 -4 10 -10z m73 -20 c-7 -27 -20 -34 -27 -14 -6 15 14 45
26 38 3 -2 4 -13 1 -24z m397 21 c0 -11 -26 -22 -34 -14 -12 12 -5 23 14 23
11 0 20 -4 20 -9z m-445 -21 c3 -5 1 -10 -4 -10 -6 0 -11 5 -11 10 0 6 2 10 4
10 3 0 8 -4 11 -10z m425 -70 c0 -5 -2 -10 -4 -10 -3 0 -8 5 -11 10 -3 6 -1
10 4 10 6 0 11 -4 11 -10z m-25 -30 c-3 -5 -11 -10 -16 -10 -6 0 -7 5 -4 10 3
6 11 10 16 10 6 0 7 -4 4 -10z m-485 -42 c0 -6 8 -17 18 -24 9 -7 12 -14 5
-14 -16 0 -43 28 -43 46 0 8 5 12 10 9 6 -3 10 -11 10 -17z m85 -8 c3 -5 1
-10 -4 -10 -6 0 -11 5 -11 10 0 6 2 10 4 10 3 0 8 -4 11 -10z m145 6 c0 -2 -7
-7 -16 -10 -8 -3 -12 -2 -9 4 6 10 25 14 25 6z m205 -6 c3 -5 -3 -10 -14 -10
-11 0 -23 5 -26 10 -3 6 3 10 14 10 11 0 23 -4 26 -10z m-160 -40 c-3 -5 -10
-10 -16 -10 -5 0 -9 5 -9 10 0 6 7 10 16 10 8 0 12 -4 9 -10z m325 6 c0 -3 -4
-8 -10 -11 -5 -3 -10 -1 -10 4 0 6 5 11 10 11 6 0 10 -2 10 -4z m-490 -37 c0
-6 -4 -7 -10 -4 -5 3 -10 11 -10 16 0 6 5 7 10 4 6 -3 10 -11 10 -16z m-36
-14 c-4 -8 -10 -15 -15 -15 -4 0 -6 7 -3 15 4 8 10 15 15 15 4 0 6 -7 3 -15z
m191 -5 c3 -5 -1 -10 -10 -10 -9 0 -13 5 -10 10 3 6 8 10 10 10 2 0 7 -4 10
-10z m-80 -20 c3 -5 2 -10 -4 -10 -5 0 -13 5 -16 10 -3 6 -2 10 4 10 5 0 13
-4 16 -10z m489 -54 c-21 -15 -30 -14 -19 3 3 6 14 11 23 11 13 0 13 -2 -4
-14z m16 -127 c0 -4 -7 -6 -15 -3 -8 4 -15 10 -15 15 0 4 7 6 15 3 8 -4 15
-10 15 -15z m-780 -39 c0 -11 -4 -20 -9 -20 -5 0 -7 9 -4 20 3 11 7 20 9 20 2
0 4 -9 4 -20z m842 -22 c-8 -8 -9 -4 -5 13 4 13 8 18 11 10 2 -7 -1 -18 -6
-23z m-22 -7 c0 -6 -4 -13 -10 -16 -5 -3 -10 1 -10 9 0 9 5 16 10 16 6 0 10
-4 10 -9z m-810 -21 c0 -5 -7 -10 -15 -10 -8 0 -15 5 -15 10 0 6 7 10 15 10 8
0 15 -4 15 -10z m855 -10 c3 -5 1 -10 -4 -10 -6 0 -11 5 -11 10 0 6 2 10 4 10
3 0 8 -4 11 -10z"/>
<path d="M3969 2053 c-6 -7 -6 -34 1 -75 9 -54 55 -938 63 -1188 l2 -85 40 2
c22 0 75 2 117 3 95 3 104 11 90 77 -6 27 -13 116 -17 198 -3 83 -8 185 -12
228 -5 65 -3 77 10 77 13 0 176 -192 372 -438 27 -35 59 -75 70 -89 l21 -25
137 7 c97 6 137 11 137 20 0 18 -38 71 -138 192 -48 60 -138 170 -200 246 -62
75 -110 142 -107 147 4 6 29 22 57 36 68 34 138 102 174 166 26 48 29 62 29
143 0 75 -4 97 -24 134 -55 104 -192 196 -336 226 -96 20 -469 19 -486 -2z
m361 -92 c0 -5 -7 -11 -15 -15 -9 -3 -15 0 -15 9 0 8 7 15 15 15 8 0 15 -4 15
-9z m-230 -36 c11 -13 10 -14 -4 -9 -9 3 -16 10 -16 15 0 13 6 11 20 -6z m177
-21 c-3 -3 -12 -4 -19 -1 -8 3 -5 6 6 6 11 1 17 -2 13 -5z m323 -14 c0 -5 -2
-10 -4 -10 -3 0 -8 5 -11 10 -3 6 -1 10 4 10 6 0 11 -4 11 -10z m-486 -15 c-7
-17 -20 -20 -28 -6 -4 5 0 12 6 14 23 9 28 7 22 -8z m355 -73 c116 -45 141
-107 72 -173 -50 -47 -135 -79 -228 -86 l-71 -6 -6 64 c-3 35 -8 102 -10 148
l-6 84 98 -5 c64 -4 115 -12 151 -26z m154 11 c-7 -2 -19 -2 -25 0 -7 3 -2 5
12 5 14 0 19 -2 13 -5z m83 -130 c-10 -10 -19 5 -10 18 6 11 8 11 12 0 2 -7 1
-15 -2 -18z m-576 -39 c0 -8 -6 -14 -14 -14 -7 0 -19 6 -25 14 -9 11 -6 14 14
14 15 0 25 -6 25 -14z m503 -124 c-8 -32 -22 -34 -19 -3 5 36 4 35 15 29 5 -3
7 -15 4 -26z m-373 -80 c0 -5 -7 -7 -15 -4 -8 4 -12 10 -9 15 6 11 24 2 24
-11z m-180 -10 c0 -5 -5 -10 -11 -10 -5 0 -7 5 -4 10 3 6 8 10 11 10 2 0 4 -4
4 -10z m220 0 c0 -5 -4 -10 -10 -10 -5 0 -10 5 -10 10 0 6 5 10 10 10 6 0 10
-4 10 -10z m130 -49 c0 -9 -5 -23 -10 -31 -7 -11 -10 -7 -10 18 0 20 -6 35
-15 38 -8 4 -15 10 -15 15 0 5 11 2 25 -7 14 -9 25 -24 25 -33z m-250 29 c0
-5 -7 -10 -15 -10 -8 0 -15 5 -15 10 0 6 7 10 15 10 8 0 15 -4 15 -10z m-50
-30 c0 -5 -7 -10 -16 -10 -8 0 -12 5 -9 10 3 6 10 10 16 10 5 0 9 -4 9 -10z
m345 -10 c3 -5 1 -10 -4 -10 -6 0 -11 5 -11 10 0 6 2 10 4 10 3 0 8 -4 11 -10z
m-355 -55 c0 -17 -2 -18 -24 -9 -23 9 -20 24 4 24 11 0 20 -7 20 -15z m41 -18
c-6 -8 -9 -17 -6 -21 3 -3 0 -2 -6 3 -12 10 -4 31 13 31 7 0 7 -4 -1 -13z
m359 -37 c0 -5 -2 -10 -4 -10 -3 0 -8 5 -11 10 -3 6 -1 10 4 10 6 0 11 -4 11
-10z m-20 -26 c0 -8 -32 -33 -42 -34 -5 0 -8 5 -8 10 0 6 7 10 16 10 8 0 12 5
9 10 -3 6 1 10 9 10 9 0 16 -3 16 -6z m-340 -13 c0 -6 -4 -13 -10 -16 -5 -3
-10 1 -10 9 0 9 5 16 10 16 6 0 10 -4 10 -9z m540 -171 c0 -5 -7 -10 -16 -10
-8 0 -12 5 -9 10 3 6 10 10 16 10 5 0 9 -4 9 -10z m0 -50 c0 -5 -2 -10 -4 -10
-3 0 -8 5 -11 10 -3 6 -1 10 4 10 6 0 11 -4 11 -10z m-528 -172 c-6 -6 -15 -8
-19 -4 -4 4 -1 11 7 16 19 12 27 3 12 -12z"/>
<path d="M3620 2040 c-52 -4 -223 -13 -380 -20 -159 -7 -291 -18 -298 -23 -9
-7 -11 -22 -7 -45 4 -19 6 -68 6 -108 0 -88 9 -99 71 -85 75 17 228 23 233 8
2 -6 13 -212 24 -457 28 -604 29 -607 41 -630 10 -19 17 -20 98 -14 109 7 129
11 134 26 3 7 -3 139 -12 293 -27 428 -44 795 -37 802 4 3 68 8 142 9 75 2
141 6 146 10 7 4 8 27 3 68 -5 33 -8 86 -9 116 0 54 0 55 -30 56 -16 1 -73 -2
-125 -6z m-183 -95 c-19 -41 -32 -24 -18 23 1 1 7 2 15 2 11 0 12 -5 3 -25z
m-207 5 c8 -5 12 -12 9 -15 -8 -8 -39 5 -39 16 0 11 11 11 30 -1z m60 -60 c0
-5 -2 -10 -4 -10 -3 0 -8 5 -11 10 -3 6 -1 10 4 10 6 0 11 -4 11 -10z m-200
-24 c0 -3 -4 -8 -10 -11 -5 -3 -10 -1 -10 4 0 6 5 11 10 11 6 0 10 -2 10 -4z
m100 -16 c0 -5 -4 -10 -10 -10 -5 0 -10 5 -10 10 0 6 5 10 10 10 6 0 10 -4 10
-10z m190 -150 c0 -5 -7 -10 -15 -10 -8 0 -15 5 -15 10 0 6 7 10 15 10 8 0 15
-4 15 -10z m0 -94 c0 -3 -4 -8 -10 -11 -5 -3 -10 -1 -10 4 0 6 5 11 10 11 6 0
10 -2 10 -4z m14 -180 c-10 -8 -21 -12 -24 -10 -5 6 21 24 34 24 6 0 1 -6 -10
-14z m-9 -196 c3 -5 1 -10 -4 -10 -6 0 -11 5 -11 10 0 6 2 10 4 10 3 0 8 -4
11 -10z m40 -88 c-3 -3 -11 0 -18 7 -9 10 -8 11 6 5 10 -3 15 -9 12 -12z m-25
-247 c0 -8 -6 -15 -14 -15 -8 0 -16 7 -20 15 -4 10 1 15 14 15 11 0 20 -7 20
-15z m70 5 c0 -5 -7 -10 -15 -10 -8 0 -15 5 -15 10 0 6 7 10 15 10 8 0 15 -4
15 -10z m-97 -87 c-7 -2 -19 -2 -25 0 -7 3 -2 5 12 5 14 0 19 -2 13 -5z"/>
<path d="M2045 1963 c-49 -2 -94 -8 -98 -12 -5 -5 -3 -55 3 -112 9 -92 46
-833 55 -1119 2 -58 4 -108 4 -112 2 -13 39 -18 63 -9 20 7 462 34 728 44 l65
2 -2 119 c-2 128 -7 141 -53 131 -30 -6 -443 -34 -516 -35 l-51 0 -7 108 c-14
222 -38 722 -41 849 -2 73 -6 137 -10 143 -3 5 -16 9 -28 8 -12 -1 -62 -4
-112 -5z m9 -260 c-18 -19 -29 -16 -13 4 11 13 11 17 2 20 -7 3 -13 12 -13 20
0 11 5 9 19 -8 15 -19 16 -25 5 -36z m36 -13 c0 -5 -2 -10 -4 -10 -3 0 -8 5
-11 10 -3 6 -1 10 4 10 6 0 11 -4 11 -10z m0 -154 c0 -3 -4 -8 -10 -11 -5 -3
-10 -1 -10 4 0 6 5 11 10 11 6 0 10 -2 10 -4z m35 -65 c-6 -20 -25 -30 -25
-13 1 26 14 52 22 44 6 -6 7 -19 3 -31z m-90 19 c3 -5 1 -10 -4 -10 -6 0 -11
5 -11 10 0 6 2 10 4 10 3 0 8 -4 11 -10z m55 -274 c0 -3 -4 -8 -10 -11 -5 -3
-10 -1 -10 4 0 6 5 11 10 11 6 0 10 -2 10 -4z m70 -88 c0 -16 -3 -19 -11 -11
-6 6 -8 16 -5 22 11 17 16 13 16 -11z m-3 -184 c-3 -3 -12 -4 -19 -1 -8 3 -5
6 6 6 11 1 17 -2 13 -5z m603 -154 c0 -5 -5 -10 -11 -10 -5 0 -7 5 -4 10 3 6
8 10 11 10 2 0 4 -4 4 -10z m-235 -19 c9 -16 -9 -20 -23 -5 -10 12 -10 14 2
14 8 0 17 -4 21 -9z m185 -15 c0 -3 -4 -8 -10 -11 -5 -3 -10 -1 -10 4 0 6 5
11 10 11 6 0 10 -2 10 -4z m-81 -39 c-1 -17 -2 -18 -6 -4 -2 9 -14 17 -26 18
-21 0 -21 1 -2 8 26 11 35 5 34 -22z m141 15 c0 -4 -10 -13 -22 -21 -23 -14
-23 -14 -4 8 20 22 26 25 26 13z m-446 -62 c-6 -5 -24 21 -24 34 0 6 6 1 14
-10 8 -10 12 -21 10 -24z m86 30 c0 -5 -5 -10 -11 -10 -5 0 -7 5 -4 10 3 6 8
10 11 10 2 0 4 -4 4 -10z m57 -5 c9 -25 -2 -27 -22 -5 -17 18 -17 20 -1 20 9
0 19 -7 23 -15z"/>
<path d="M1581 1918 c-5 -13 -7 -36 -5 -53 13 -100 41 -797 34 -841 -25 -150
-126 -222 -297 -212 -91 5 -149 31 -187 81 -51 67 -56 98 -77 522 -11 220 -22
415 -25 433 -8 54 -37 65 -146 55 l-93 -8 2 -65 c9 -255 45 -853 54 -890 29
-129 127 -258 237 -314 151 -76 358 -76 522 2 124 58 229 209 248 357 11 80
-23 895 -38 933 -9 21 -15 22 -115 22 -100 0 -106 -1 -114 -22z m127 -189
c-24 -16 -29 -9 -11 18 15 23 18 24 21 9 2 -10 -2 -22 -10 -27z m49 -216 c2
-6 -6 -13 -18 -16 -11 -3 -18 -10 -15 -16 4 -5 2 -12 -4 -16 -14 -9 -13 21 2
45 13 21 29 22 35 3z m-67 -37 c0 -3 -4 -8 -10 -11 -5 -3 -10 -1 -10 4 0 6 5
11 10 11 6 0 10 -2 10 -4z m-723 -178 c-3 -8 -6 -5 -6 6 -1 11 2 17 5 13 3 -3
4 -12 1 -19z m758 2 c3 -5 -1 -10 -9 -10 -9 0 -16 5 -16 10 0 6 4 10 9 10 6 0
13 -4 16 -10z m-10 -30 c3 -5 1 -10 -4 -10 -6 0 -11 5 -11 10 0 6 2 10 4 10 3
0 8 -4 11 -10z m-748 -186 c-3 -3 -12 -4 -19 -1 -8 3 -5 6 6 6 11 1 17 -2 13
-5z m773 -4 c0 -5 -4 -10 -10 -10 -5 0 -10 5 -10 10 0 6 5 10 10 10 6 0 10 -4
10 -10z m-10 -234 c0 -3 -4 -8 -10 -11 -5 -3 -10 -1 -10 4 0 6 5 11 10 11 6 0
10 -2 10 -4z m-715 -16 c3 -5 1 -10 -4 -10 -6 0 -11 5 -11 10 0 6 2 10 4 10 3
0 8 -4 11 -10z m635 -35 c0 -8 -4 -15 -10 -15 -5 0 -10 7 -10 15 0 8 5 15 10
15 6 0 10 -7 10 -15z m-590 -35 c0 -5 -5 -10 -11 -10 -5 0 -7 5 -4 10 3 6 8
10 11 10 2 0 4 -4 4 -10z m515 -30 c3 -5 2 -10 -4 -10 -5 0 -13 5 -16 10 -3 6
-2 10 4 10 5 0 13 -4 16 -10z m-335 -50 c0 -5 -5 -10 -11 -10 -5 0 -7 5 -4 10
3 6 8 10 11 10 2 0 4 -4 4 -10z m95 -50 c3 -5 1 -10 -4 -10 -6 0 -11 5 -11 10
0 6 2 10 4 10 3 0 8 -4 11 -10z"/>
</g>
</svg>
