<?xml version="1.0" standalone="no"?>
<!DOCTYPE svg PUBLIC "-//W3C//DTD SVG 20010904//EN"
 "http://www.w3.org/TR/2001/REC-SVG-20010904/DTD/svg10.dtd">
<svg version="1.0" xmlns="http://www.w3.org/2000/svg"
 width="1634.000000pt" height="350.000000pt" viewBox="0 0 1634.000000 350.000000"
 preserveAspectRatio="xMidYMid meet">

<g transform="translate(0.000000,350.000000) scale(0.100000,-0.100000)"
fill="#000000" stroke="none">
<path d="M13225 3234 c-27 -7 -62 -17 -77 -20 -35 -8 -120 -90 -146 -140 -26
-52 -43 -137 -45 -227 -1 -58 5 -89 28 -152 36 -99 76 -140 170 -177 149 -59
397 -26 452 59 19 29 41 85 48 118 23 127 23 243 -1 324 -12 42 -29 69 -77
119 -34 35 -70 68 -81 74 -18 10 -177 39 -206 37 -8 0 -37 -7 -65 -15z m265
-74 c62 -51 71 -64 47 -68 -9 -2 -17 1 -17 7 0 5 -20 19 -45 30 -25 11 -48 26
-51 34 -3 9 -13 13 -25 10 -10 -3 -29 1 -41 9 -15 9 -32 12 -48 7 -14 -4 -39
-7 -56 -8 -17 -1 -37 -8 -44 -17 -8 -8 -25 -14 -39 -12 -20 2 -25 -1 -23 -14
2 -13 -4 -18 -23 -18 -14 0 -25 5 -25 10 0 6 7 10 15 10 8 0 15 5 15 10 0 14
62 51 77 45 7 -2 15 1 19 7 4 6 43 9 108 6 l101 -3 55 -45z m-97 -37 c114 -30
142 -80 158 -281 10 -120 10 -124 -15 -178 -35 -75 -83 -97 -213 -98 -85 0
-95 3 -133 29 -23 16 -46 37 -51 47 -5 10 -16 18 -24 18 -22 0 -58 148 -56
227 3 126 119 254 214 236 13 -3 28 0 31 6 9 14 15 14 89 -6z m-298 -33 c3 -5
2 -10 -4 -10 -5 0 -13 5 -16 10 -3 6 -2 10 4 10 5 0 13 -4 16 -10z m517 -40
c23 -47 22 -50 -12 -50 -32 0 -37 8 -17 29 10 11 9 13 -5 8 -18 -6 -35 24 -23
43 12 20 40 5 57 -30z m-557 10 c-3 -5 -10 -10 -16 -10 -5 0 -9 5 -9 10 0 6 7
10 16 10 8 0 12 -4 9 -10z m-25 -70 c0 -5 -7 -10 -15 -10 -8 0 -15 5 -15 10 0
6 7 10 15 10 8 0 15 -4 15 -10z m610 -35 c0 -28 -33 -50 -58 -39 -14 6 -13 8
8 14 16 5 19 8 8 9 -10 1 -18 5 -18 11 0 11 29 29 48 30 6 0 12 -11 12 -25z
m-620 -55 c0 -4 -7 -10 -15 -14 -10 -4 -15 1 -15 14 0 13 5 18 15 14 8 -4 15
-10 15 -14z m628 -2 c-2 -16 -10 -22 -30 -23 -16 0 -28 3 -28 7 0 6 47 36 58
38 2 0 2 -10 0 -22z m-3 -114 c-3 -19 -10 -34 -15 -34 -4 0 -14 -2 -22 -5 -9
-4 -14 3 -16 20 -1 16 3 25 13 25 7 0 16 4 19 9 3 4 -7 6 -22 5 -15 -2 -21 -1
-14 2 10 5 10 9 1 20 -12 15 -6 19 36 26 23 4 30 -18 20 -68z m-639 19 c-10
-10 -19 5 -10 18 6 11 8 11 12 0 2 -7 1 -15 -2 -18z m24 -23 c0 -5 -5 -10 -11
-10 -5 0 -7 5 -4 10 3 6 8 10 11 10 2 0 4 -4 4 -10z m587 -97 c-4 -21 -15 -49
-25 -63 -23 -31 -80 -70 -101 -70 -12 1 -11 3 4 12 34 18 90 84 87 102 -2 9 1
16 6 16 6 0 8 9 5 20 -4 14 0 20 12 20 15 0 17 -6 12 -37z m-517 -78 c0 -8 -4
-15 -9 -15 -5 0 -11 7 -15 15 -3 9 0 15 9 15 8 0 15 -7 15 -15z"/>
<path d="M8590 3164 c-75 -43 -100 -66 -100 -91 0 -22 25 -15 114 29 83 41 96
55 88 91 -5 24 -17 21 -102 -29z"/>
<path d="M12809 3206 c-2 -2 -109 -6 -237 -9 -128 -2 -234 -6 -235 -8 -2 -2
-8 -17 -15 -32 -24 -56 -22 -57 92 -55 58 2 107 0 111 -3 3 -4 13 -145 21
-315 9 -170 19 -313 23 -317 11 -11 76 -16 90 -7 20 12 12 318 -14 547 -3 23
-1 53 4 66 10 26 8 25 149 48 65 11 72 14 72 35 0 37 -11 54 -34 54 -13 0 -25
-2 -27 -4z m-9 -36 c-14 -4 -32 -8 -40 -9 -13 -1 -13 0 0 9 8 5 26 9 40 9 l25
-1 -25 -8z m-380 -10 c13 0 13 -1 0 -10 -24 -16 -60 -12 -60 6 0 12 6 15 23
10 12 -3 29 -6 37 -6z m90 0 c0 -5 -15 -10 -32 -10 -25 0 -29 3 -18 10 20 13
50 13 50 0z m60 -2 c0 -9 3 -9 12 0 7 7 23 12 36 12 21 0 23 -2 12 -15 -7 -8
-20 -14 -28 -13 -19 3 -29 -31 -14 -41 7 -4 8 -12 2 -21 -7 -11 -11 -3 -16 28
-5 32 -11 42 -26 42 -10 0 -16 5 -13 10 9 14 35 13 35 -2z m155 2 c-3 -5 -17
-10 -31 -10 -13 0 -24 5 -24 10 0 6 14 10 31 10 17 0 28 -4 24 -10z m-144
-243 c-8 -8 -11 -7 -11 4 0 20 13 34 18 19 3 -7 -1 -17 -7 -23z m19 -51 c0 -7
-7 -19 -15 -26 -12 -10 -15 -9 -15 7 0 11 3 23 7 26 11 12 23 8 23 -7z m20
-35 c0 -5 -7 -14 -15 -21 -12 -10 -15 -10 -15 2 0 8 3 18 7 21 9 10 23 9 23
-2z m-20 -61 c-11 -20 -30 -28 -30 -12 0 11 22 32 32 32 5 0 4 -9 -2 -20z m6
-48 c-22 -23 -29 -10 -9 18 11 16 18 19 21 11 2 -7 -3 -20 -12 -29z m16 -44
c-7 -7 -12 -8 -12 -2 0 14 12 26 19 19 2 -3 -1 -11 -7 -17z m-19 -54 c-9 -15
-19 -21 -21 -15 -6 19 6 41 23 41 14 0 13 -3 -2 -26z m27 -67 c0 -5 -4 -5 -10
-2 -5 3 -7 0 -5 -7 3 -8 -1 -22 -9 -33 -14 -19 -15 -17 -16 22 0 24 5 43 13
46 12 4 27 -10 27 -26z"/>
<path d="M12062 3175 c-52 -7 -137 -13 -190 -14 -52 0 -96 -2 -97 -4 -5 -8 17
-301 25 -342 6 -27 14 -126 17 -218 6 -151 8 -169 25 -178 12 -7 68 -8 156 -3
75 4 142 7 147 6 6 0 40 -4 76 -8 l66 -7 10 30 c14 40 5 83 -20 92 -39 14
-130 12 -202 -5 -55 -13 -84 -15 -117 -8 l-43 9 -5 100 c-4 76 -2 103 8 112 7
6 61 14 120 18 142 9 156 13 160 54 6 64 -30 73 -196 49 -49 -6 -86 -7 -91 -2
-5 5 -12 50 -16 100 l-7 92 64 11 c34 7 104 14 153 17 138 8 135 7 135 59 0
43 -1 45 -29 45 -16 0 -35 2 -43 4 -7 2 -55 -2 -106 -9z m103 -35 c-3 -5 -15
-10 -26 -10 -10 0 -19 5 -19 10 0 6 12 10 26 10 14 0 23 -4 19 -10z m-245 -15
c0 -5 -75 -45 -84 -45 -3 0 -2 8 1 18 6 15 5 15 -10 3 -15 -12 -17 -11 -17 8
0 19 6 21 55 21 30 0 55 -2 55 -5z m-80 -69 c0 -3 -4 -8 -10 -11 -5 -3 -10 -1
-10 4 0 6 5 11 10 11 6 0 10 -2 10 -4z m10 -36 c0 -5 -7 -10 -16 -10 -8 0 -12
5 -9 10 3 6 10 10 16 10 5 0 9 -4 9 -10z m-18 -42 c-7 -7 -12 -8 -12 -2 0 14
12 26 19 19 2 -3 -1 -11 -7 -17z m23 -27 c-3 -6 -11 -11 -17 -11 -6 0 -6 6 2
15 14 17 26 13 15 -4z m5 -39 c0 -10 -22 -32 -32 -32 -4 0 -8 9 -8 20 0 13 7
20 20 20 11 0 20 -4 20 -8z m5 -52 c-3 -5 -11 -10 -16 -10 -6 0 -7 5 -4 10 3
6 11 10 16 10 6 0 7 -4 4 -10z m-7 -50 c-9 -14 -14 -16 -20 -7 -13 20 -9 27
12 27 18 0 19 -3 8 -20z m290 8 c-3 -7 -13 -15 -24 -17 -16 -3 -17 -1 -5 13
16 19 34 21 29 4z m-137 -18 c-30 -26 -45 -26 -31 0 6 11 21 20 33 20 l22 -1
-24 -19z m53 5 c-6 -16 -24 -21 -24 -7 0 11 11 22 21 22 5 0 6 -7 3 -15z
m-118 -10 c-11 -8 -22 -11 -25 -6 -3 4 -13 11 -21 14 -8 3 3 6 25 6 37 0 39
-1 21 -14z m-79 -157 c-3 -8 -6 -5 -6 6 -1 11 2 17 5 13 3 -3 4 -12 1 -19z m3
-43 c0 -14 -4 -25 -10 -25 -11 0 -14 33 -3 43 11 11 13 8 13 -18z m329 -106
c-17 -11 -56 -12 -62 -1 -3 4 13 8 36 9 27 1 36 -2 26 -8z m64 -9 c-8 -31 -23
-34 -23 -6 0 16 6 26 14 26 9 0 12 -7 9 -20z m-384 -16 c-14 -18 -24 -11 -15
11 3 9 11 13 16 10 8 -5 7 -11 -1 -21z m166 6 c-3 -5 -15 -10 -26 -10 -11 0
-17 5 -14 10 3 6 15 10 26 10 11 0 17 -4 14 -10z m170 0 c-3 -5 -12 -10 -18
-10 -7 0 -6 4 3 10 19 12 23 12 15 0z"/>
<path d="M13811 3183 l-44 -4 5 -82 c3 -45 16 -148 29 -229 l23 -148 33 0 33
0 0 88 c0 48 3 147 7 219 6 133 0 166 -31 161 -6 -1 -31 -3 -55 -5z m3 -98
c-4 -16 -2 -25 6 -25 6 0 8 -5 5 -10 -10 -16 -25 -1 -25 24 0 20 7 36 17 36 2
0 1 -11 -3 -25z m39 -130 c-3 -9 -8 -14 -10 -11 -3 3 -2 9 2 15 9 16 15 13 8
-4z m-3 -184 c-7 -11 -9 -3 -9 29 1 42 1 43 9 16 6 -17 5 -36 0 -45z"/>
<path d="M11337 3144 c-3 -3 -49 -7 -102 -8 -126 -4 -135 -11 -112 -93 9 -32
17 -67 17 -78 0 -11 4 -56 9 -100 6 -44 13 -171 17 -282 5 -135 11 -203 18
-204 30 -3 73 4 85 14 11 9 12 32 7 104 -3 51 -9 105 -12 121 -9 43 16 62 79
62 52 0 52 0 110 -69 31 -38 63 -80 70 -94 7 -13 30 -47 52 -76 41 -53 59 -60
110 -41 l26 10 -54 77 c-30 43 -65 98 -77 123 -13 25 -33 58 -46 73 -13 16
-24 32 -24 35 1 4 19 19 41 35 62 43 82 100 76 211 -6 84 -8 91 -39 124 -18
19 -47 41 -65 48 -32 14 -174 20 -186 8z m53 -39 c0 -22 -27 -30 -46 -14 -14
12 -14 14 3 20 29 12 43 10 43 -6z m80 5 c0 -5 -4 -10 -10 -10 -5 0 -10 -7
-10 -15 0 -21 -27 -19 -40 4 -7 14 -6 21 3 24 22 9 57 7 57 -3z m-246 -16 c5
-13 2 -15 -16 -10 -13 3 -29 6 -35 6 -7 0 -13 5 -13 10 0 17 57 11 64 -6z
m100 1 c4 -12 -3 -15 -34 -15 -38 0 -49 8 -33 23 12 13 61 7 67 -8z m228 -12
c42 -45 64 -100 36 -90 -7 2 -12 9 -11 15 1 5 -13 13 -32 16 -24 5 -32 11 -28
21 3 10 -2 15 -16 15 -22 0 -25 8 -15 34 9 24 37 19 66 -11z m-99 -58 c25 -10
39 -25 51 -55 19 -49 21 -110 3 -134 -16 -22 -175 -56 -224 -49 -31 5 -31 5
-37 82 -4 42 -8 93 -10 114 -3 27 0 40 12 47 26 15 165 12 205 -5z m-253 -76
c0 -17 -4 -28 -9 -25 -10 7 -20 53 -13 60 11 11 22 -7 22 -35z m385 21 c-3 -5
-1 -10 4 -10 15 0 14 -63 -1 -78 -8 -8 -15 -9 -25 -1 -18 15 -17 32 2 25 20
-7 19 1 -5 31 -26 34 -25 43 6 43 14 0 23 -4 19 -10z m-65 -205 c-13 -14 -20
-25 -16 -25 5 0 3 -7 -4 -15 -7 -8 -9 -15 -5 -15 5 0 6 -3 2 -6 -6 -6 -37 19
-37 30 0 3 6 6 14 6 7 0 21 11 30 25 9 14 22 25 28 25 6 0 1 -11 -12 -25z
m-130 -15 c0 -5 -17 -9 -37 -9 -38 1 -38 1 -8 9 43 11 45 11 45 0z m70 6 c0
-2 -7 -6 -15 -10 -8 -3 -15 -1 -15 4 0 6 7 10 15 10 8 0 15 -2 15 -4z m-247
-72 c9 -9 -4 -35 -14 -28 -5 3 -9 12 -9 20 0 14 12 19 23 8z m302 -24 c3 -5
-3 -10 -14 -10 -11 0 -23 5 -26 10 -3 6 3 10 14 10 11 0 23 -4 26 -10z m80
-140 c25 -41 45 -79 44 -85 0 -20 -71 70 -76 98 -3 15 -9 27 -13 27 -7 0 -31
55 -30 69 1 10 29 -30 75 -109z m-371 85 c-4 -8 -1 -15 5 -15 6 0 8 -7 5 -15
-4 -8 -11 -15 -16 -15 -6 0 -8 7 -4 15 3 8 0 15 -6 15 -7 0 -6 5 2 15 7 8 14
15 16 15 2 0 1 -7 -2 -15z m1 -65 c-3 -5 -11 -10 -16 -10 -6 0 -7 5 -4 10 3 6
11 10 16 10 6 0 7 -4 4 -10z m15 -33 c0 -22 -16 -47 -31 -47 -6 0 -4 24 7 58
6 21 24 13 24 -11z m0 -67 c0 -11 -7 -20 -15 -20 -27 0 -18 30 13 39 1 1 2 -8
2 -19z"/>
<path d="M10728 3096 c-223 -80 -341 -353 -242 -563 62 -130 225 -235 307
-195 12 6 49 13 82 16 84 9 169 28 177 40 4 6 8 28 8 49 0 50 -19 56 -83 26
-39 -19 -67 -24 -121 -23 -156 1 -230 45 -262 153 -22 75 -14 214 16 276 18
38 76 95 95 95 4 0 21 6 38 14 60 27 118 33 190 18 38 -7 75 -11 83 -8 33 13
6 80 -43 105 -30 15 -200 13 -245 -3z m85 -48 c-2 -4 -10 -2 -17 5 -8 6 -12
15 -9 19 2 4 10 2 17 -5 8 -6 12 -15 9 -19z m102 21 c11 -16 1 -19 -13 -3 -7
8 -8 14 -3 14 5 0 13 -5 16 -11z m48 5 c3 -3 3 -13 0 -21 -5 -12 -7 -12 -14
-1 -15 23 -4 40 14 22z m-229 -29 c-29 -22 -42 -17 -15 6 13 11 26 17 29 14 3
-3 -3 -12 -14 -20z m-80 -40 c-6 -16 -24 -21 -24 -7 0 11 11 22 21 22 5 0 6
-7 3 -15z m-44 -45 c0 -12 -12 -28 -28 -38 -16 -9 -27 -22 -25 -28 2 -6 -3
-14 -12 -17 -8 -4 -15 -2 -15 3 0 6 5 10 11 10 5 0 7 5 3 11 -5 8 51 79 63 79
2 0 3 -9 3 -20z m-50 -105 c-7 -9 -15 -13 -17 -11 -7 7 7 26 19 26 6 0 6 -6
-2 -15z m-20 -40 c0 -2 -9 -9 -20 -15 -16 -9 -20 -8 -20 5 0 8 9 15 20 15 11
0 20 -2 20 -5z m8 -27 c-3 -7 -13 -15 -24 -17 -16 -3 -17 -1 -5 13 16 19 34
21 29 4z m-8 -47 c0 -5 -11 -16 -25 -25 -24 -16 -25 -15 -25 2 0 10 3 22 7 25
9 10 43 8 43 -2z m5 -31 c-3 -5 -11 -10 -16 -10 -6 0 -7 5 -4 10 3 6 11 10 16
10 6 0 7 -4 4 -10z m-27 -46 c-9 -9 -21 -13 -27 -10 -20 13 -11 26 16 26 25 0
26 -1 11 -16z m30 -16 c-3 -7 -13 -15 -24 -17 -16 -3 -17 -1 -5 13 16 19 34
21 29 4z m10 -48 c7 -12 10 -25 7 -30 -7 -11 34 -90 47 -90 4 0 8 -6 8 -14 0
-9 33 -20 100 -35 119 -25 182 -27 240 -6 49 17 60 18 60 6 0 -37 -230 -49
-355 -19 -55 14 -105 53 -105 84 0 13 -5 24 -10 24 -20 0 -29 44 -12 63 8 9
10 17 4 17 -6 0 -14 -4 -17 -10 -9 -15 -25 -12 -25 4 0 14 14 24 35 25 6 1 16
-8 23 -19z"/>
<path d="M10145 3070 c-27 -5 -97 -9 -154 -9 l-104 -1 8 -149 c4 -83 11 -167
16 -188 6 -21 12 -117 16 -213 3 -96 10 -180 15 -187 7 -9 70 -11 235 -10
l226 3 9 23 c4 13 6 39 2 57 -5 26 -11 34 -28 35 -11 0 -43 3 -71 6 -31 3 -73
-2 -113 -12 -69 -19 -159 -16 -172 5 -4 7 -8 56 -9 110 l-2 97 31 7 c17 3 74
9 128 12 131 9 143 14 135 56 -3 18 -10 39 -16 46 -12 15 -77 15 -184 0 -52
-8 -86 -8 -92 -3 -5 6 -11 50 -13 100 l-3 90 60 12 c33 7 110 15 171 19 l112
7 5 41 c3 22 3 44 1 48 -6 10 -141 8 -209 -2z m130 -30 c-3 -5 -15 -10 -26
-10 -10 0 -19 5 -19 10 0 6 12 10 26 10 14 0 23 -4 19 -10z m-251 -18 c3 -5
-11 -17 -32 -26 -22 -11 -38 -14 -40 -7 -2 5 -10 7 -18 4 -8 -3 -14 1 -14 10
0 9 8 18 18 20 30 8 81 7 86 -1z m-64 -102 c0 -5 -8 -10 -17 -10 -15 0 -16 2
-3 10 19 12 20 12 20 0z m-10 -34 c0 -3 -4 -8 -10 -11 -5 -3 -10 -1 -10 4 0 6
5 11 10 11 6 0 10 -2 10 -4z m20 -31 c0 -8 -4 -15 -10 -15 -5 0 -7 7 -4 15 4
8 8 15 10 15 2 0 4 -7 4 -15z m0 -49 c0 -7 -7 -19 -15 -26 -13 -11 -15 -8 -15
14 0 16 5 26 15 26 8 0 15 -6 15 -14z m10 -46 c0 -5 -5 -10 -11 -10 -5 0 -7 5
-4 10 3 6 8 10 11 10 2 0 4 -4 4 -10z m0 -39 c0 -5 -7 -14 -15 -21 -13 -10
-15 -9 -15 9 0 12 6 21 15 21 8 0 15 -4 15 -9z m284 -6 c4 -10 -1 -15 -14 -15
-20 0 -26 11 -13 23 10 11 20 8 27 -8z m-114 0 c0 -2 -13 -11 -30 -20 -26 -13
-30 -13 -30 -1 0 8 6 17 13 19 16 7 47 8 47 2z m24 -10 c-4 -8 -10 -15 -15
-15 -4 0 -6 7 -3 15 4 8 10 15 15 15 4 0 6 -7 3 -15z m-104 -6 c0 -12 -25 -17
-54 -12 -17 4 -23 9 -16 13 14 9 70 8 70 -1z m-90 -73 c0 -3 -4 -8 -10 -11 -5
-3 -10 -1 -10 4 0 6 5 11 10 11 6 0 10 -2 10 -4z m-4 -153 c-11 -11 -19 6 -11
24 8 17 8 17 12 0 3 -10 2 -21 -1 -24z m400 -89 c-3 -9 -6 -20 -6 -25 0 -5 -4
-9 -10 -9 -5 0 -10 11 -10 25 0 16 6 25 16 25 11 0 14 -5 10 -16z m-383 -19
c-5 -13 -23 -22 -23 -11 0 15 14 35 21 31 4 -3 6 -12 2 -20z m317 21 c0 -2
-13 -6 -29 -8 -17 -2 -28 -1 -25 4 5 8 54 12 54 4z m-155 -16 c-3 -5 -16 -10
-28 -10 -18 0 -19 2 -7 10 20 13 43 13 35 0z m180 0 c-3 -5 -12 -10 -18 -10
-7 0 -6 4 3 10 19 12 23 12 15 0z"/>
<path d="M5735 3007 c-75 -43 -91 -57 -93 -80 -2 -15 2 -27 8 -27 6 0 51 20
100 45 87 44 90 46 90 80 0 19 -3 35 -7 35 -5 0 -48 -24 -98 -53z"/>
<path d="M9404 3027 c-64 -22 -102 -48 -131 -92 -51 -77 -39 -177 28 -227 19
-14 104 -51 191 -82 101 -37 164 -66 179 -82 29 -31 32 -93 5 -123 -52 -57
-241 -72 -324 -26 -46 26 -62 25 -62 -3 0 -10 -7 -28 -16 -40 -14 -20 -13 -24
9 -46 21 -21 37 -25 121 -31 53 -4 116 -5 139 -1 65 10 194 57 212 76 22 24
50 167 41 204 -15 61 -106 122 -200 135 -28 5 -73 20 -100 34 -27 15 -59 27
-72 27 -33 0 -94 61 -94 94 0 55 81 106 168 106 18 0 72 -16 119 -36 99 -40
103 -39 103 42 0 33 -5 56 -15 64 -22 18 -250 24 -301 7z m254 -26 c18 -3 33
-9 32 -13 0 -5 0 -17 0 -29 0 -12 -5 -19 -12 -16 -7 2 -12 13 -10 24 2 17 -3
20 -35 20 -31 0 -120 8 -131 12 -2 1 -1 5 3 10 5 9 87 5 153 -8z m-272 -26
c-11 -8 -27 -15 -35 -15 -10 1 -7 6 9 15 33 19 50 18 26 0z m-62 -59 c-6 -16
-24 -23 -24 -8 0 10 22 33 27 28 2 -2 1 -11 -3 -20z m-24 -60 c0 -11 -19 -15
-25 -6 -3 5 1 10 9 10 9 0 16 -2 16 -4z m-10 -46 c0 -5 -4 -10 -10 -10 -5 0
-10 5 -10 10 0 6 5 10 10 10 6 0 10 -4 10 -10z m60 -70 c0 -5 -5 -10 -11 -10
-5 0 -7 5 -4 10 3 6 8 10 11 10 2 0 4 -4 4 -10z m127 -46 c-3 -3 -12 -4 -19
-1 -8 3 -5 6 6 6 11 1 17 -2 13 -5z m183 -69 c0 -8 -4 -15 -9 -15 -5 0 -14 7
-21 15 -10 13 -9 15 9 15 12 0 21 -6 21 -15z m53 -22 c-7 -2 -19 -2 -25 0 -7
3 -2 5 12 5 14 0 19 -2 13 -5z m43 -34 c3 -6 0 -15 -7 -20 -8 -5 -15 -4 -17 1
-2 6 -10 10 -18 10 -8 0 -14 5 -14 10 0 14 47 13 56 -1z m14 -44 c0 -9 -9 -15
-21 -15 -18 0 -19 2 -9 15 7 8 16 15 21 15 5 0 9 -7 9 -15z m-10 -53 c0 -5 -6
-17 -14 -27 -13 -18 -13 -17 -11 6 3 30 3 29 15 29 6 0 10 -4 10 -8z m-20 -67
c0 -26 -36 -52 -103 -74 -66 -21 -97 -20 -97 4 0 12 62 25 121 25 22 0 32 7
44 30 17 32 35 40 35 15z m-390 -55 c0 -5 -6 -10 -12 -11 -7 0 -4 -4 6 -8 17
-7 18 -8 3 -14 -19 -7 -31 8 -23 28 6 17 26 20 26 5z m100 -14 c0 -16 -27 -29
-42 -20 -7 5 -4 12 7 21 24 17 35 17 35 -1z m78 -13 c2 -9 -7 -13 -27 -13 -21
0 -31 5 -31 16 0 19 51 16 58 -3z"/>
<path d="M8670 2990 c-30 -5 -101 -8 -157 -9 l-102 -1 5 -117 c3 -65 12 -158
19 -208 8 -49 17 -163 21 -252 6 -137 10 -163 23 -167 31 -10 446 -1 453 9 10
13 10 93 0 99 -4 2 -39 7 -78 11 -53 5 -86 2 -129 -10 -51 -15 -157 -18 -169
-4 -2 2 -6 52 -9 110 l-6 107 39 6 c22 3 81 9 132 12 112 8 128 15 128 55 0
54 -20 63 -118 54 -48 -4 -109 -8 -136 -9 l-48 -1 -5 70 c-6 98 -5 107 5 117
12 12 113 27 237 36 l100 7 3 48 3 47 -78 -1 c-43 -1 -103 -5 -133 -9z m130
-30 c0 -5 -12 -10 -26 -10 -14 0 -23 4 -19 10 3 6 15 10 26 10 10 0 19 -4 19
-10z m-250 -18 c0 -7 -63 -42 -76 -42 -3 0 -2 5 2 11 4 8 0 9 -15 4 -25 -8
-27 -2 -5 19 16 16 94 23 94 8z m-75 -72 c-3 -5 -11 -10 -16 -10 -6 0 -7 5 -4
10 3 6 11 10 16 10 6 0 7 -4 4 -10z m15 -29 c0 -5 -7 -11 -15 -15 -15 -5 -20
5 -8 17 9 10 23 9 23 -2z m-10 -35 c0 -3 -4 -8 -10 -11 -5 -3 -10 -1 -10 4 0
6 5 11 10 11 6 0 10 -2 10 -4z m20 -31 c0 -8 -7 -15 -16 -15 -14 0 -14 3 -4
15 7 8 14 15 16 15 2 0 4 -7 4 -15z m0 -42 c-1 -11 -26 -43 -34 -43 -3 0 -6
11 -6 25 0 18 5 25 20 25 11 0 20 -3 20 -7z m5 -53 c-3 -5 -11 -10 -16 -10 -6
0 -7 5 -4 10 3 6 11 10 16 10 6 0 7 -4 4 -10z m-7 -49 c-13 -21 -28 -19 -28 5
0 8 9 14 20 14 17 0 19 -3 8 -19z m292 -2 c0 -5 -10 -9 -21 -9 -18 0 -19 2 -9
15 12 15 30 12 30 -6z m-139 -9 c-24 -21 -41 -26 -41 -12 0 15 24 32 45 32 19
-1 19 -1 -4 -20z m45 -7 c-10 -10 -19 5 -10 18 6 11 8 11 12 0 2 -7 1 -15 -2
-18z m-111 1 c-8 -6 -27 -9 -41 -6 -33 6 -13 19 27 18 24 -1 26 -3 14 -12z
m-85 -74 c0 -5 -5 -10 -11 -10 -5 0 -7 5 -4 10 3 6 8 10 11 10 2 0 4 -4 4 -10z
m2 -82 c-7 -7 -12 -8 -12 -2 0 14 12 26 19 19 2 -3 -1 -11 -7 -17z m8 -48 c0
-11 -4 -20 -10 -20 -5 0 -10 9 -10 20 0 11 5 20 10 20 6 0 10 -9 10 -20z m318
-105 c-2 -1 -15 -5 -29 -8 -17 -5 -26 -2 -26 6 0 9 10 12 29 9 16 -3 28 -5 26
-7z m72 -4 c0 -11 -4 -23 -10 -26 -6 -4 -10 5 -10 19 0 14 5 26 10 26 6 0 10
-9 10 -19z m-381 -17 c-14 -18 -24 -11 -15 11 3 9 11 13 16 10 8 -5 7 -11 -1
-21z m161 6 c0 -5 -10 -10 -22 -10 -19 0 -20 2 -8 10 19 13 30 13 30 0z m175
0 c-3 -5 -12 -10 -18 -10 -7 0 -6 4 3 10 19 12 23 12 15 0z"/>
<path d="M7590 2925 c-19 -7 -46 -14 -58 -14 -15 -1 -47 -24 -86 -63 -71 -72
-89 -113 -105 -246 -12 -97 -3 -155 39 -248 34 -76 67 -107 150 -140 56 -23
81 -27 175 -28 199 -2 287 45 318 171 18 75 27 124 32 175 5 53 -14 167 -35
214 -22 52 -110 148 -148 163 -79 30 -223 39 -282 16z m186 -24 c42 -6 61 -16
107 -56 35 -32 53 -53 47 -59 -6 -6 -17 -2 -30 12 -12 12 -27 22 -35 22 -7 0
-27 11 -43 25 -17 14 -40 25 -52 25 -12 0 -30 5 -41 11 -21 11 -113 -5 -133
-23 -6 -4 -23 -8 -38 -8 -22 0 -28 -5 -28 -21 0 -15 -5 -20 -22 -17 -22 3 -39
28 -19 28 6 0 20 8 31 18 51 44 142 60 256 43z m10 -87 c100 -26 129 -78 144
-267 14 -163 -6 -223 -83 -264 -57 -29 -239 -29 -269 1 -7 7 -21 15 -31 19 -9
3 -22 18 -27 32 -5 14 -16 25 -24 25 -24 0 -62 153 -57 229 8 119 113 241 196
228 19 -3 37 -1 40 4 9 13 37 11 111 -7z m-309 -30 c-3 -3 -12 -4 -19 -1 -8 3
-5 6 6 6 11 1 17 -2 13 -5z m496 -12 c21 -23 38 -70 28 -76 -4 -3 -17 -2 -29
1 -19 5 -20 8 -10 21 11 13 10 14 -2 10 -21 -7 -41 22 -29 44 12 23 22 23 42
0z m-538 -12 c3 -5 -1 -10 -10 -10 -9 0 -13 5 -10 10 3 6 8 10 10 10 2 0 7 -4
10 -10z m-30 -70 c3 -5 -1 -10 -10 -10 -9 0 -13 5 -10 10 3 6 8 10 10 10 2 0
7 -4 10 -10z m562 -16 c-3 -3 -12 -4 -19 -1 -8 3 -5 6 6 6 11 1 17 -2 13 -5z
m53 -18 c0 -14 -10 -32 -22 -40 -28 -20 -38 -20 -38 -1 0 9 6 12 15 9 8 -4 15
-1 15 5 0 6 -9 11 -21 11 -21 0 -21 0 2 20 32 26 49 25 49 -4z m-628 -61 c0
-5 -5 -11 -11 -13 -6 -2 -11 4 -11 13 0 9 5 15 11 13 6 -2 11 -8 11 -13z m638
-5 c0 -16 -7 -20 -30 -20 -36 0 -39 13 -7 28 32 15 37 14 37 -8z m0 -78 c0
-40 -14 -65 -41 -75 -26 -9 -21 39 5 52 20 11 20 11 -3 5 -19 -5 -23 -3 -18
10 3 8 1 19 -6 23 -8 5 -3 10 13 14 46 13 50 11 50 -29z m-649 -15 c-8 -8 -11
-7 -11 4 0 20 13 34 18 19 3 -7 -1 -17 -7 -23z m29 -27 c0 -5 -5 -10 -11 -10
-5 0 -7 5 -4 10 3 6 8 10 11 10 2 0 4 -4 4 -10z m590 -84 c-12 -56 -47 -103
-94 -125 -54 -27 -73 -27 -23 0 21 11 43 31 49 44 6 14 18 25 25 25 10 0 12 6
8 19 -3 11 -1 22 5 26 6 3 8 11 5 16 -8 12 3 29 20 29 10 0 11 -8 5 -34z
m-523 -92 c-9 -9 -28 6 -21 18 4 6 10 6 17 -1 6 -6 8 -13 4 -17z"/>
<path d="M7025 2900 c-27 -5 -97 -9 -154 -9 l-104 -1 8 -149 c4 -83 11 -167
16 -188 6 -21 12 -117 16 -213 3 -96 10 -180 15 -187 7 -9 70 -11 235 -10
l226 3 9 23 c4 13 6 39 2 57 -5 26 -11 34 -28 35 -11 0 -43 3 -71 6 -31 3 -73
-2 -113 -12 -69 -19 -159 -16 -172 5 -4 7 -8 56 -9 110 l-2 97 31 7 c17 3 74
9 128 12 131 9 143 14 135 56 -3 18 -10 39 -16 46 -12 15 -77 15 -184 0 -52
-8 -86 -8 -92 -3 -5 6 -11 50 -13 100 l-3 90 60 12 c33 7 110 15 171 19 l112
7 5 41 c3 22 3 44 1 48 -6 10 -141 8 -209 -2z m130 -30 c-3 -5 -15 -10 -26
-10 -10 0 -19 5 -19 10 0 6 12 10 26 10 14 0 23 -4 19 -10z m-251 -18 c3 -5
-11 -17 -32 -26 -22 -11 -38 -14 -40 -7 -2 5 -10 7 -18 4 -8 -3 -14 1 -14 10
0 9 8 18 18 20 30 8 81 7 86 -1z m-64 -102 c0 -5 -8 -10 -17 -10 -15 0 -16 2
-3 10 19 12 20 12 20 0z m-10 -34 c0 -3 -4 -8 -10 -11 -5 -3 -10 -1 -10 4 0 6
5 11 10 11 6 0 10 -2 10 -4z m20 -31 c0 -8 -4 -15 -10 -15 -5 0 -7 7 -4 15 4
8 8 15 10 15 2 0 4 -7 4 -15z m0 -49 c0 -7 -7 -19 -15 -26 -13 -11 -15 -8 -15
14 0 16 5 26 15 26 8 0 15 -6 15 -14z m10 -46 c0 -5 -5 -10 -11 -10 -5 0 -7 5
-4 10 3 6 8 10 11 10 2 0 4 -4 4 -10z m0 -39 c0 -5 -7 -14 -15 -21 -13 -10
-15 -9 -15 9 0 12 6 21 15 21 8 0 15 -4 15 -9z m284 -6 c4 -10 -1 -15 -14 -15
-20 0 -26 11 -13 23 10 11 20 8 27 -8z m-114 0 c0 -2 -13 -11 -30 -20 -26 -13
-30 -13 -30 -1 0 8 6 17 13 19 16 7 47 8 47 2z m24 -10 c-4 -8 -10 -15 -15
-15 -4 0 -6 7 -3 15 4 8 10 15 15 15 4 0 6 -7 3 -15z m-104 -6 c0 -12 -25 -17
-54 -12 -17 4 -23 9 -16 13 14 9 70 8 70 -1z m-90 -73 c0 -3 -4 -8 -10 -11 -5
-3 -10 -1 -10 4 0 6 5 11 10 11 6 0 10 -2 10 -4z m-4 -153 c-11 -11 -19 6 -11
24 8 17 8 17 12 0 3 -10 2 -21 -1 -24z m400 -89 c-3 -9 -6 -20 -6 -25 0 -5 -4
-9 -10 -9 -5 0 -10 11 -10 25 0 16 6 25 16 25 11 0 14 -5 10 -16z m-383 -19
c-5 -13 -23 -22 -23 -11 0 15 14 35 21 31 4 -3 6 -12 2 -20z m317 21 c0 -2
-13 -6 -29 -8 -17 -2 -28 -1 -25 4 5 8 54 12 54 4z m-155 -16 c-3 -5 -16 -10
-28 -10 -18 0 -19 2 -7 10 20 13 43 13 35 0z m180 0 c-3 -5 -12 -10 -18 -10
-7 0 -6 4 3 10 19 12 23 12 15 0z"/>
<path d="M6170 2853 c-19 -2 -59 -8 -88 -14 l-54 -11 7 -241 c4 -133 10 -296
14 -362 l6 -120 25 1 c14 1 113 14 220 28 248 34 288 51 337 142 71 132 81
265 28 382 -33 74 -87 127 -170 168 -55 26 -70 29 -175 30 -63 1 -131 0 -150
-3z m140 -33 c-8 -5 -26 -10 -40 -10 -20 0 -22 2 -10 10 8 5 26 10 40 10 20 0
22 -2 10 -10z m67 -11 c-17 -10 -50 -1 -42 11 2 4 16 5 31 2 21 -4 23 -7 11
-13z m-252 -24 c-57 -27 -65 -29 -65 -16 0 23 33 41 73 40 l42 -1 -50 -23z
m381 -6 c45 -13 117 -94 112 -124 -4 -16 -1 -22 9 -18 9 4 13 -3 13 -22 0 -15
8 -34 18 -41 16 -13 16 -13 -1 -14 -10 0 -15 -4 -12 -10 3 -5 -4 -10 -16 -10
-18 0 -19 2 -9 15 10 12 9 16 -4 21 -9 4 -16 14 -14 23 1 9 -5 27 -15 41 -9
13 -17 29 -17 35 0 13 -67 75 -81 75 -5 0 -9 5 -9 11 0 5 -4 8 -9 5 -4 -3 -17
1 -27 9 -10 8 -28 15 -39 15 -15 0 -17 2 -6 9 8 5 27 5 45 -1 17 -5 45 -14 62
-19z m-159 -13 c55 -15 133 -54 133 -68 0 -5 11 -13 25 -18 28 -10 46 -42 69
-119 13 -44 14 -65 4 -129 -9 -64 -16 -81 -46 -114 -63 -70 -151 -98 -303 -98
l-78 0 -6 43 c-3 23 -7 143 -8 267 l-2 225 55 12 c74 15 96 15 157 -1z m-257
-55 c0 -22 3 -46 6 -55 4 -11 0 -16 -13 -16 -15 0 -19 8 -21 46 -2 48 3 64 19
64 5 0 9 -18 9 -39z m10 -105 c0 -8 -6 -16 -12 -19 -10 -4 -10 -7 0 -18 14
-15 17 -89 3 -89 -10 0 -16 22 -26 93 -7 43 -6 47 14 47 11 0 21 -6 21 -14z
m570 -86 c0 -21 -33 -60 -50 -60 -17 0 -11 17 16 49 30 36 34 38 34 11z m-564
-195 c3 -72 8 -133 11 -137 6 -12 63 -9 202 7 146 17 157 20 193 51 18 14 35
20 49 17 21 -6 21 -7 4 -20 -11 -7 -25 -13 -32 -13 -7 0 -13 -4 -13 -9 0 -18
-253 -59 -377 -60 l-52 -1 -5 43 c-9 68 -16 249 -10 259 15 24 24 -18 30 -137z
m554 113 c0 -10 -7 -21 -15 -24 -12 -5 -13 -9 -4 -21 9 -10 9 -20 2 -36 -6
-12 -15 -34 -21 -49 -11 -26 -55 -48 -69 -34 -9 8 18 37 28 30 5 -3 9 -2 8 3
-2 9 8 53 21 93 4 14 10 32 13 41 7 22 37 20 37 -3z"/>
<path d="M5765 2833 c-11 -3 -23 -8 -27 -11 -3 -4 0 -50 7 -102 12 -89 27
-284 41 -532 l6 -108 35 0 c19 0 43 -5 54 -10 18 -10 19 -7 19 62 -1 65 -11
268 -24 458 -3 36 -8 76 -12 90 -4 14 -8 54 -9 90 l-2 65 -34 2 c-19 0 -43 -1
-54 -4z m43 -45 c18 -18 15 -36 -8 -48 -16 -9 -19 -8 -13 6 3 9 0 20 -7 24 -7
4 -9 13 -6 19 9 14 19 14 34 -1z m6 -84 c8 -20 8 -24 -1 -24 -17 0 -35 19 -29
29 10 16 23 14 30 -5z m16 -55 c0 -17 -20 -49 -30 -49 -6 0 -10 14 -10 30 0
23 4 30 20 30 11 0 20 -5 20 -11z m15 -60 c-4 -5 -13 -9 -22 -9 -13 0 -13 3
-3 15 13 15 35 11 25 -6z m-5 -42 c0 -17 -29 -57 -41 -57 -8 0 -3 43 8 63 7
12 33 8 33 -6z m10 -57 c0 -14 -7 -20 -22 -20 -20 0 -21 1 -3 20 10 11 20 20
22 20 1 0 3 -9 3 -20z m-10 -49 c0 -5 -6 -14 -14 -20 -16 -13 -32 2 -21 19 8
12 35 13 35 1z m-1 -52 c-25 -16 -32 -9 -13 12 12 13 20 16 22 9 3 -7 -2 -16
-9 -21z m-1 -39 c-13 -20 -28 -27 -28 -12 0 10 22 32 32 32 5 0 3 -9 -4 -20z
m22 -24 c0 -14 -29 -31 -38 -21 -6 6 18 35 29 35 5 0 9 -6 9 -14z m-9 -59
c-16 -16 -13 -27 4 -21 12 5 15 -5 15 -61 l0 -66 -27 3 c-27 3 -28 5 -31 72
-4 84 0 96 28 89 15 -4 18 -9 11 -16z"/>
<path d="M5481 2798 c-4 -13 -34 -113 -66 -223 -120 -417 -115 -402 -139 -370
-24 31 -63 117 -132 289 -36 88 -69 165 -75 172 -5 7 -18 36 -29 65 l-19 54
-42 -2 c-53 -3 -65 -14 -46 -44 8 -13 27 -58 42 -99 16 -41 37 -86 47 -99 10
-13 30 -63 44 -110 14 -47 55 -148 92 -223 73 -149 90 -166 154 -153 56 12 74
30 92 92 9 32 33 103 53 157 33 91 60 192 69 256 2 14 15 63 30 110 15 47 29
100 31 118 l5 32 -51 0 c-44 0 -53 -3 -60 -22z m69 -22 c0 -8 -7 -21 -15 -29
-8 -8 -11 -17 -8 -21 7 -7 -16 -36 -28 -36 -13 0 -11 23 6 64 15 35 45 50 45
22z m-550 -41 c0 -25 1 -29 11 -42 7 -7 6 -14 -1 -18 -13 -8 -12 -9 -28 28
-16 37 -15 47 3 47 8 0 15 -7 15 -15z m517 -72 c-9 -9 -20 -13 -24 -9 -4 4 1
14 11 22 25 18 35 8 13 -13z m-477 -8 c0 -8 -7 -15 -15 -15 -16 0 -20 12 -8
23 11 12 23 8 23 -8z m450 -24 c0 -5 -7 -11 -15 -15 -9 -3 -15 0 -15 9 0 8 7
15 15 15 8 0 15 -4 15 -9z m-450 -11 c0 -5 -8 -10 -17 -10 -15 0 -16 2 -3 10
19 12 20 12 20 0z m461 -34 c-11 -28 -25 -33 -37 -14 -4 6 3 19 16 30 28 23
34 19 21 -16z m-425 -23 c-3 -7 -1 -15 4 -18 14 -8 12 -35 -1 -35 -6 0 -9 7
-5 15 3 9 0 15 -10 15 -10 0 -14 6 -11 14 3 8 1 16 -4 18 -6 2 -7 12 -3 22 7
18 8 18 21 0 7 -10 11 -24 9 -31z m393 -29 c-10 -13 -39 -20 -39 -10 0 20 14
33 31 29 15 -4 17 -8 8 -19z m6 -33 c-3 -6 -14 -11 -23 -11 -15 1 -15 2 2 15
21 16 32 13 21 -4z m-364 -27 c12 -14 11 -16 -5 -13 -11 2 -21 10 -24 17 -5
17 13 15 29 -4z m339 -3 c0 -5 -7 -12 -16 -15 -22 -9 -24 -8 -24 9 0 8 9 15
20 15 11 0 20 -4 20 -9z m18 -23 c-3 -7 -15 -14 -29 -16 -23 -2 -23 -2 -5 13
24 18 39 20 34 3z m-331 -24 c3 -8 1 -20 -6 -27 -13 -13 -16 -10 -25 21 -6 16
-3 22 9 22 8 0 18 -7 22 -16z m298 -14 c3 -6 -1 -13 -10 -16 -19 -8 -30 0 -20
15 8 14 22 14 30 1z m-265 -47 c0 -6 -7 -10 -15 -9 -23 3 -29 14 -15 31 11 13
15 13 21 3 5 -7 9 -18 9 -25z m280 13 c0 -12 -60 -66 -74 -66 -14 0 -5 30 12
39 9 6 13 11 7 11 -11 1 35 29 48 30 4 0 7 -6 7 -14z m-280 -51 c0 -8 5 -15
10 -15 6 0 10 -6 10 -14 0 -8 -10 -13 -24 -13 -17 0 -25 6 -29 23 -5 26 0 34
20 34 7 0 13 -7 13 -15z m246 -31 c-30 -21 -44 -16 -17 7 13 11 27 17 30 13 3
-3 -3 -12 -13 -20z m-206 -49 c0 -8 -9 -15 -20 -15 -11 0 -20 7 -20 15 0 8 9
15 20 15 11 0 20 -7 20 -15z m26 -60 c3 -13 12 -29 20 -36 18 -15 18 -29 -1
-29 -16 0 -58 74 -48 84 12 12 23 6 29 -19z m124 -28 c0 -2 -10 -12 -22 -23
l-23 -19 19 23 c18 21 26 27 26 19z m-73 -54 c-9 -9 -20 -14 -24 -10 -3 4 2
14 13 21 25 19 33 10 11 -11z"/>
<path d="M4465 2764 c-5 -2 -78 -8 -162 -12 -84 -4 -154 -10 -156 -12 -6 -9
12 -273 23 -345 7 -38 15 -142 18 -230 l7 -159 30 -6 c17 -3 77 -2 135 2 58 4
149 5 202 2 l98 -6 10 27 c6 16 7 40 2 58 -8 31 -11 32 -73 39 -44 5 -84 2
-129 -8 -36 -8 -93 -14 -125 -12 l-60 3 -5 100 c-3 55 -4 105 -2 111 4 13 50
20 187 30 50 4 93 8 98 11 13 8 7 80 -8 93 -10 9 -33 10 -73 6 -31 -3 -92 -9
-134 -12 l-78 -6 0 35 c0 19 -3 61 -6 95 l-7 60 39 11 c22 6 101 16 177 23
l137 12 0 48 0 48 -67 -1 c-38 0 -72 -2 -78 -5z m61 -39 c-19 -14 -36 -12 -36
6 0 5 12 9 28 9 26 -1 26 -1 8 -15z m-271 -37 c-24 -13 -40 -17 -43 -10 -2 6
-10 8 -18 5 -8 -3 -14 1 -14 11 0 13 11 16 58 16 l57 -1 -40 -21z m-35 -83 c0
-8 -7 -15 -15 -15 -26 0 -18 20 13 29 1 1 2 -6 2 -14z m-10 -29 c0 -3 -4 -8
-10 -11 -5 -3 -10 -1 -10 4 0 6 5 11 10 11 6 0 10 -2 10 -4z m20 -35 c0 -5 -7
-11 -15 -15 -15 -5 -20 5 -8 17 9 10 23 9 23 -2z m-5 -41 c10 -16 -16 -43 -28
-31 -11 11 -2 41 12 41 5 0 13 -5 16 -10z m5 -60 c-8 -5 -17 -7 -19 -4 -3 3 1
9 9 14 8 5 17 7 19 4 3 -3 -1 -9 -9 -14z m10 -29 c0 -5 -6 -14 -14 -20 -16
-13 -32 2 -21 19 8 12 35 13 35 1z m284 -6 c4 -10 -1 -15 -14 -15 -20 0 -26
11 -13 23 10 11 20 8 27 -8z m-124 -3 c0 -11 -48 -37 -55 -30 -8 8 24 38 41
38 8 0 14 -4 14 -8z m34 -7 c-4 -8 -10 -15 -15 -15 -4 0 -6 7 -3 15 4 8 10 15
15 15 4 0 6 -7 3 -15z m-115 -15 c-9 -5 -28 -6 -45 0 -27 8 -26 8 16 9 32 0
40 -2 29 -9z m-79 -199 c0 -11 -4 -23 -10 -26 -6 -4 -10 5 -10 19 0 14 5 26
10 26 6 0 10 -9 10 -19z m13 -126 c-5 -13 -23 -22 -23 -11 0 15 14 35 21 31 4
-3 6 -12 2 -20z m315 20 c-11 -11 -60 -16 -53 -5 3 5 18 10 32 10 15 0 24 -2
21 -5z m65 -15 c-3 -11 -9 -20 -14 -20 -5 0 -9 9 -9 20 0 11 6 20 14 20 9 0
12 -7 9 -20z m-233 -10 c-19 -12 -30 -12 -30 -1 0 10 31 20 40 14 2 -2 -2 -8
-10 -13z m190 6 c0 -2 -7 -7 -16 -10 -8 -3 -12 -2 -9 4 6 10 25 14 25 6z"/>
<path d="M3670 2717 c-139 -39 -205 -154 -157 -270 21 -48 47 -63 234 -132
174 -64 203 -84 203 -145 0 -53 -23 -77 -95 -99 -82 -25 -178 -19 -247 15 -57
29 -58 29 -58 7 0 -10 -7 -31 -16 -48 -15 -29 -15 -31 16 -58 31 -28 32 -28
163 -26 133 1 165 8 277 62 32 16 62 100 64 179 1 52 -2 60 -34 93 -41 42
-105 75 -146 75 -16 0 -58 14 -92 30 -35 17 -75 30 -88 30 -36 0 -104 66 -104
100 0 42 35 78 92 95 72 21 86 20 189 -21 104 -42 109 -40 109 38 0 39 -4 50
-24 63 -34 22 -224 30 -286 12z m235 -25 c34 -6 40 -11 43 -35 2 -19 -1 -27
-13 -27 -11 0 -14 6 -10 23 6 22 3 23 -57 24 -35 1 -73 2 -85 3 -13 0 -23 5
-23 10 0 11 85 12 145 2z m-168 -8 c-3 -3 -12 -4 -19 -1 -8 3 -5 6 6 6 11 1
17 -2 13 -5z m-91 -23 c-8 -12 -46 -21 -46 -11 0 9 18 18 38 19 7 1 11 -3 8
-8z m-66 -56 c0 -8 -7 -15 -16 -15 -14 0 -14 3 -4 15 7 8 14 15 16 15 2 0 4
-7 4 -15z m-25 -65 c-3 -5 -10 -10 -16 -10 -5 0 -9 5 -9 10 0 6 7 10 16 10 8
0 12 -4 9 -10z m-5 -40 c0 -5 -4 -10 -10 -10 -5 0 -10 5 -10 10 0 6 5 10 10
10 6 0 10 -4 10 -10z m360 -185 c0 -13 -4 -14 -20 -5 -11 6 -20 13 -20 15 0 3
9 5 20 5 11 0 20 -7 20 -15z m57 -21 c-3 -3 -12 -4 -19 -1 -8 3 -5 6 6 6 11 1
17 -2 13 -5z m47 -33 c3 -4 -4 -17 -16 -27 -12 -11 -18 -13 -14 -6 4 7 1 15
-8 18 -9 3 -13 10 -10 15 7 11 41 12 48 0z m16 -46 c0 -16 -27 -32 -37 -21 -7
7 16 36 28 36 5 0 9 -7 9 -15z m-19 -67 c-4 -12 -13 -24 -19 -26 -14 -4 -4 29
12 40 16 11 16 10 7 -14z m-11 -52 c0 -32 -48 -63 -132 -86 -38 -10 -51 -10
-63 0 -24 20 -9 28 71 35 67 7 76 10 84 31 5 13 16 24 25 24 8 0 15 -2 15 -4z
m-390 -56 c0 -5 -6 -10 -12 -11 -10 0 -10 -2 0 -6 17 -7 15 -23 -3 -23 -15 0
-21 31 -8 43 10 10 23 8 23 -3z m94 -25 c-6 -16 -44 -21 -44 -7 0 14 12 22 31
22 12 0 16 -5 13 -15z m76 0 c0 -9 -9 -15 -25 -15 -16 0 -25 6 -25 15 0 9 9
15 25 15 16 0 25 -6 25 -15z"/>
<path d="M3061 2690 c-76 -16 -131 -49 -162 -98 -37 -58 -44 -94 -29 -148 19
-67 56 -92 235 -158 180 -66 215 -90 215 -152 0 -47 -33 -79 -103 -99 -74 -21
-182 -13 -247 20 l-48 24 -6 -34 c-4 -19 -14 -39 -23 -44 -15 -8 -13 -13 16
-40 36 -33 44 -35 226 -32 85 1 220 46 247 82 18 25 37 106 40 171 1 26 -6 47
-25 71 -31 42 -118 87 -164 87 -19 0 -60 14 -93 30 -33 17 -69 30 -81 30 -12
0 -39 14 -60 31 -30 23 -39 38 -39 60 0 62 44 97 135 110 43 6 62 2 134 -27
47 -19 91 -34 97 -34 18 0 28 64 18 103 -6 20 -18 33 -34 37 -46 13 -204 18
-249 10z m202 -29 c26 -4 50 -11 53 -14 10 -10 -6 -58 -17 -52 -5 4 -7 15 -4
26 5 16 1 18 -27 17 -48 -3 -138 12 -138 23 0 11 67 11 133 0z m-156 -7 c-3
-3 -12 -4 -19 -1 -8 3 -5 6 6 6 11 1 17 -2 13 -5z m-101 -29 c-23 -17 -36 -19
-36 -6 0 11 18 19 40 20 11 0 10 -3 -4 -14z m-67 -66 c-19 -12 -24 -2 -8 17 9
11 14 13 17 4 3 -7 -2 -16 -9 -21z m-19 -49 c0 -5 -4 -10 -10 -10 -5 0 -10 5
-10 10 0 6 5 10 10 10 6 0 10 -4 10 -10z m0 -40 c0 -5 -4 -10 -10 -10 -5 0
-10 5 -10 10 0 6 5 10 10 10 6 0 10 -4 10 -10z m60 -74 c0 -3 -4 -8 -10 -11
-5 -3 -10 -1 -10 4 0 6 5 11 10 11 6 0 10 -2 10 -4z m300 -111 c0 -8 -4 -15
-9 -15 -5 0 -14 7 -21 15 -10 13 -9 15 9 15 12 0 21 -6 21 -15z m95 -55 c4 -6
2 -17 -5 -25 -10 -12 -14 -11 -29 3 -15 15 -15 18 -1 24 22 10 28 9 35 -2z
m21 -59 c-8 -13 -36 -15 -36 -3 0 4 5 13 12 20 14 14 34 0 24 -17z m-16 -55
c0 -7 -8 -20 -17 -27 -15 -12 -16 -12 -10 4 4 10 7 23 7 28 0 5 5 9 10 9 6 0
10 -6 10 -14z m-17 -67 c-8 -28 -38 -46 -116 -66 -52 -14 -69 -15 -79 -5 -20
20 3 31 76 35 63 3 70 6 83 30 16 32 44 37 36 6z m-400 -56 c-17 -13 -17 -14
0 -9 9 3 17 1 17 -4 0 -13 -27 -13 -35 0 -8 14 14 42 27 34 5 -3 1 -13 -9 -21z
m115 -5 c-5 -15 -48 -24 -48 -10 0 14 12 22 33 22 10 0 17 -5 15 -12z m67 1
c9 -13 6 -16 -28 -24 -20 -6 -27 -4 -27 8 0 24 43 36 55 16z"/>
<path d="M2565 2660 c-33 -4 -98 -8 -145 -9 -137 -2 -130 5 -124 -115 3 -55
12 -155 20 -221 8 -66 18 -185 22 -264 8 -172 -2 -163 167 -149 61 4 152 5
204 2 73 -5 95 -4 102 7 11 17 11 80 1 95 -12 18 -137 23 -195 8 -56 -15 -173
-19 -180 -6 -3 4 -8 55 -11 113 l-7 106 58 6 c32 4 90 9 128 12 112 9 115 10
115 51 0 55 -20 68 -93 60 -34 -4 -95 -8 -136 -9 l-73 -2 -3 65 c-2 36 -4 70
-6 75 -9 50 18 60 214 77 l138 12 -3 45 -3 46 -65 1 c-36 1 -92 -2 -125 -6z
m115 -29 c0 -12 -29 -23 -41 -15 -5 3 -7 10 -4 15 8 12 45 12 45 0z m-270 -41
c-39 -21 -65 -26 -54 -9 4 8 0 9 -15 4 -16 -5 -20 -3 -15 9 5 12 20 16 63 16
l56 -1 -35 -19z m-55 -50 c-3 -5 -12 -10 -18 -10 -7 0 -6 4 3 10 19 12 23 12
15 0z m5 -40 c-8 -5 -17 -7 -19 -4 -3 3 1 9 9 14 8 5 17 7 19 4 3 -3 -1 -9 -9
-14z m0 -24 c0 -3 -4 -8 -10 -11 -5 -3 -10 -1 -10 4 0 6 5 11 10 11 6 0 10 -2
10 -4z m20 -31 c0 -8 -7 -15 -16 -15 -14 0 -14 3 -4 15 7 8 14 15 16 15 2 0 4
-7 4 -15z m-5 -45 c7 -12 -12 -40 -26 -40 -10 0 -12 34 -2 43 9 10 21 9 28 -3z
m10 -50 c-3 -5 -12 -10 -18 -10 -7 0 -6 4 3 10 19 12 23 12 15 0z m-7 -50 c-7
-11 -16 -16 -21 -11 -12 12 0 31 19 31 12 0 12 -3 2 -20z m292 -1 c0 -5 -10
-9 -21 -9 -18 0 -19 2 -9 15 12 15 30 12 30 -6z m-139 -9 c-21 -19 -41 -26
-41 -16 0 12 33 36 48 36 14 -1 12 -5 -7 -20z m45 -7 c-10 -10 -19 5 -10 18 6
11 8 11 12 0 2 -7 1 -15 -2 -18z m-106 3 c-10 -10 -25 -12 -45 -8 -30 6 -30 7
10 13 22 3 42 7 45 8 2 0 -2 -5 -10 -13z m-90 -76 c0 -5 -5 -10 -11 -10 -5 0
-7 5 -4 10 3 6 8 10 11 10 2 0 4 -4 4 -10z m10 -74 c0 -3 -4 -8 -10 -11 -5 -3
-10 -1 -10 4 0 6 5 11 10 11 6 0 10 -2 10 -4z m0 -55 c0 -11 -4 -23 -10 -26
-6 -4 -10 5 -10 19 0 14 5 26 10 26 6 0 10 -9 10 -19z m0 -81 c0 -5 -4 -10
-10 -10 -5 0 -10 5 -10 10 0 6 5 10 10 10 6 0 10 -4 10 -10z m329 -24 c-2 -2
-20 -6 -39 -10 -25 -4 -31 -3 -20 4 14 9 69 15 59 6z m61 -10 c0 -8 -4 -18
-10 -21 -5 -3 -10 3 -10 14 0 12 5 21 10 21 6 0 10 -6 10 -14z m-370 0 c0 -2
-7 -9 -15 -16 -12 -10 -15 -10 -15 4 0 9 7 16 15 16 8 0 15 -2 15 -4z m140
-16 c-16 -11 -40 -13 -40 -5 0 8 44 24 50 18 2 -2 -2 -8 -10 -13z"/>
<path d="M13842 2601 c-8 -5 -12 -21 -10 -37 3 -27 6 -29 48 -29 42 0 45 2 42
25 -1 14 -4 31 -7 38 -5 14 -53 16 -73 3z m48 -31 c0 -5 -7 -10 -15 -10 -8 0
-15 5 -15 10 0 6 7 10 15 10 8 0 15 -4 15 -10z"/>
<path d="M12625 1625 c-5 -3 -76 -8 -157 -13 -81 -4 -150 -11 -154 -15 -8 -8
11 -300 25 -392 5 -33 10 -119 10 -191 1 -106 4 -134 16 -144 12 -10 43 -12
113 -9 53 2 154 3 223 2 l127 -3 6 34 c10 52 -6 81 -45 84 -19 1 -50 4 -69 7
-19 3 -57 -1 -85 -10 -72 -21 -172 -20 -183 3 -5 9 -10 60 -11 113 l-2 97 53
6 c29 3 91 9 138 12 47 3 90 11 97 16 7 6 10 22 6 41 -10 54 -20 60 -88 53
-33 -4 -95 -9 -138 -13 l-78 -5 1 43 c0 24 -2 67 -6 96 -6 49 -5 52 17 57 86
18 136 25 227 31 84 6 102 10 103 24 1 9 2 30 3 46 l1 30 -70 2 c-38 1 -74 0
-80 -2z m75 -35 c0 -5 -11 -10 -25 -10 -14 0 -25 5 -25 10 0 6 11 10 25 10 14
0 25 -4 25 -10z m-285 -42 c-24 -13 -40 -17 -43 -10 -2 6 -10 8 -18 5 -8 -3
-14 1 -14 11 0 13 11 16 58 16 l57 -1 -40 -21z m-45 -48 c0 -5 -5 -10 -11 -10
-5 0 -7 5 -4 10 3 6 8 10 11 10 2 0 4 -4 4 -10z m5 -39 c-3 -6 -11 -11 -17
-11 -6 0 -6 6 2 15 14 17 26 13 15 -4z m-5 -31 c0 -5 -5 -10 -11 -10 -5 0 -7
5 -4 10 3 6 8 10 11 10 2 0 4 -4 4 -10z m20 -29 c0 -5 -7 -12 -16 -15 -14 -5
-15 -4 -4 9 14 17 20 19 20 6z m-4 -42 c3 -6 -1 -18 -10 -27 -15 -15 -16 -14
-16 11 0 27 13 36 26 16z m14 -48 c0 -5 -7 -12 -16 -15 -14 -5 -15 -4 -4 9 14
17 20 19 20 6z m10 -34 c0 -2 -9 -12 -20 -22 -19 -18 -20 -17 -20 3 0 15 6 22
20 22 11 0 20 -2 20 -3z m274 -12 c4 -10 -1 -15 -14 -15 -13 0 -18 5 -14 15 4
8 10 15 14 15 4 0 10 -7 14 -15z m-134 -15 c-27 -21 -40 -25 -40 -12 0 15 24
32 45 32 19 0 18 -2 -5 -20z m45 1 c-3 -6 -11 -11 -17 -11 -6 0 -6 6 2 15 14
17 26 13 15 -4z m-116 -11 c-9 -5 -28 -6 -45 0 -27 8 -26 8 16 9 32 0 40 -2
29 -9z m-79 -70 c0 -5 -4 -10 -10 -10 -5 0 -10 5 -10 10 0 6 5 10 10 10 6 0
10 -4 10 -10z m0 -34 c0 -3 -4 -8 -10 -11 -5 -3 -10 -1 -10 4 0 6 5 11 10 11
6 0 10 -2 10 -4z m-4 -113 c-11 -11 -19 6 -11 24 8 17 8 17 12 0 3 -10 2 -21
-1 -24z m20 -112 c-12 -19 -24 -12 -19 10 4 13 9 17 15 11 6 -6 7 -15 4 -21z
m312 24 c-11 -11 -60 -16 -53 -5 3 5 18 10 32 10 15 0 24 -2 21 -5z m72 1 c0
-2 -3 -11 -6 -20 -9 -23 -24 -20 -24 4 0 11 7 20 15 20 8 0 15 -2 15 -4z
m-220 -16 c0 -5 -4 -10 -9 -10 -5 0 -18 -3 -28 -6 -16 -5 -16 -4 1 10 23 18
36 20 36 6z"/>
<path d="M11791 1583 c-26 -5 -27 6 1 -263 7 -63 11 -151 9 -195 -1 -44 0
-122 4 -173 7 -89 8 -93 36 -108 24 -12 54 -14 157 -9 73 4 145 13 170 22 23
8 49 12 57 9 23 -9 46 22 39 52 -9 39 -15 42 -59 32 -22 -5 -95 -10 -161 -10
l-122 0 -6 34 c-4 19 -6 128 -5 242 1 185 -9 310 -27 358 -6 16 -40 19 -93 9z
m75 -68 c8 -54 2 -70 -26 -78 -17 -4 -21 -2 -17 11 19 60 19 62 3 62 -19 0
-22 36 -3 43 28 12 36 5 43 -38z m4 -119 c0 -14 -11 -38 -25 -53 -24 -27 -24
-27 -25 -5 0 13 6 22 15 22 18 0 20 16 3 23 -9 3 -7 10 7 21 26 20 25 20 25
-8z m6 -91 c-3 -8 -15 -15 -27 -15 l-22 0 24 26 c23 24 37 19 25 -11z m-6 -65
c0 -5 -5 -10 -11 -10 -5 0 -7 5 -4 10 3 6 8 10 11 10 2 0 4 -4 4 -10z m-6
-151 c-16 -18 -16 -19 1 -19 13 0 16 -5 11 -22 -4 -13 -8 -45 -9 -72 -1 -27
-7 -51 -13 -53 -20 -7 -34 119 -15 131 5 3 7 15 4 26 -3 11 1 28 8 37 11 13
11 17 2 20 -18 6 -16 23 5 46 16 19 17 18 20 -28 2 -34 -2 -52 -14 -66z m352
-184 c-11 -8 -34 -15 -50 -16 -17 0 -44 -2 -60 -4 -17 -2 -25 0 -20 5 5 5 38
13 74 18 36 5 67 10 70 10 3 1 -4 -5 -14 -13z m-145 -8 c-6 -8 -26 -14 -43
-15 -31 -1 -32 0 -14 14 26 19 73 20 57 1z m-99 -9 c-9 -9 -122 -15 -122 -6 0
3 6 9 13 12 17 7 118 2 109 -6z"/>
<path d="M11455 1560 c-33 -4 -98 -8 -145 -9 -137 -2 -130 5 -124 -115 3 -55
12 -155 20 -221 8 -66 18 -185 22 -264 8 -172 -2 -163 167 -149 61 4 152 5
204 2 73 -5 95 -4 102 7 11 17 11 80 1 95 -12 18 -137 23 -195 8 -56 -15 -173
-19 -180 -6 -3 4 -8 55 -11 113 l-7 106 58 6 c32 4 90 9 128 12 112 9 115 10
115 51 0 55 -20 68 -93 60 -34 -4 -95 -8 -136 -9 l-73 -2 -3 65 c-2 36 -4 70
-6 75 -9 50 18 60 214 77 l138 12 -3 45 -3 46 -65 1 c-36 1 -92 -2 -125 -6z
m115 -29 c0 -12 -29 -23 -41 -15 -5 3 -7 10 -4 15 8 12 45 12 45 0z m-270 -41
c-39 -21 -65 -26 -54 -9 4 8 0 9 -15 4 -16 -5 -20 -3 -15 9 5 12 20 16 63 16
l56 -1 -35 -19z m-55 -50 c-3 -5 -12 -10 -18 -10 -7 0 -6 4 3 10 19 12 23 12
15 0z m5 -40 c-8 -5 -17 -7 -19 -4 -3 3 1 9 9 14 8 5 17 7 19 4 3 -3 -1 -9 -9
-14z m0 -24 c0 -3 -4 -8 -10 -11 -5 -3 -10 -1 -10 4 0 6 5 11 10 11 6 0 10 -2
10 -4z m20 -31 c0 -8 -7 -15 -16 -15 -14 0 -14 3 -4 15 7 8 14 15 16 15 2 0 4
-7 4 -15z m-5 -45 c7 -12 -12 -40 -26 -40 -10 0 -12 34 -2 43 9 10 21 9 28 -3z
m10 -50 c-3 -5 -12 -10 -18 -10 -7 0 -6 4 3 10 19 12 23 12 15 0z m-7 -50 c-7
-11 -16 -16 -21 -11 -12 12 0 31 19 31 12 0 12 -3 2 -20z m292 -1 c0 -5 -10
-9 -21 -9 -18 0 -19 2 -9 15 12 15 30 12 30 -6z m-139 -9 c-21 -19 -41 -26
-41 -16 0 12 33 36 48 36 14 -1 12 -5 -7 -20z m45 -7 c-10 -10 -19 5 -10 18 6
11 8 11 12 0 2 -7 1 -15 -2 -18z m-106 3 c-10 -10 -25 -12 -45 -8 -30 6 -30 7
10 13 22 3 42 7 45 8 2 0 -2 -5 -10 -13z m-90 -76 c0 -5 -5 -10 -11 -10 -5 0
-7 5 -4 10 3 6 8 10 11 10 2 0 4 -4 4 -10z m10 -74 c0 -3 -4 -8 -10 -11 -5 -3
-10 -1 -10 4 0 6 5 11 10 11 6 0 10 -2 10 -4z m0 -55 c0 -11 -4 -23 -10 -26
-6 -4 -10 5 -10 19 0 14 5 26 10 26 6 0 10 -9 10 -19z m0 -81 c0 -5 -4 -10
-10 -10 -5 0 -10 5 -10 10 0 6 5 10 10 10 6 0 10 -4 10 -10z m329 -24 c-2 -2
-20 -6 -39 -10 -25 -4 -31 -3 -20 4 14 9 69 15 59 6z m61 -10 c0 -8 -4 -18
-10 -21 -5 -3 -10 3 -10 14 0 12 5 21 10 21 6 0 10 -6 10 -14z m-370 0 c0 -2
-7 -9 -15 -16 -12 -10 -15 -10 -15 4 0 9 7 16 15 16 8 0 15 -2 15 -4z m140
-16 c-16 -11 -40 -13 -40 -5 0 8 44 24 50 18 2 -2 -2 -8 -10 -13z"/>
<path d="M10655 1519 c-62 -10 -157 -17 -257 -18 l-58 -1 6 -112 c3 -62 12
-157 20 -210 7 -53 16 -169 20 -257 l7 -160 28 -6 c16 -4 66 -4 111 -1 125 9
187 9 250 1 72 -10 88 1 88 61 0 23 -4 46 -10 49 -27 17 -152 17 -211 0 -44
-12 -78 -15 -116 -10 l-53 6 -1 67 c0 37 -2 86 -5 108 -6 50 -6 50 146 60 136
9 150 14 150 58 0 53 -17 60 -123 51 -51 -5 -112 -9 -136 -9 l-43 -1 -4 70
c-5 83 -5 117 0 122 8 9 195 33 253 33 86 0 93 4 93 56 0 41 -2 44 -27 44 -16
0 -37 2 -48 4 -11 2 -47 0 -80 -5z m70 -39 c-3 -5 -12 -10 -20 -10 -8 0 -17 5
-20 10 -4 6 5 10 20 10 15 0 24 -4 20 -10z m-235 -15 c0 -5 -75 -45 -84 -45
-3 0 -2 8 1 18 6 15 5 15 -10 3 -15 -12 -17 -11 -17 8 0 19 6 21 55 21 30 0
55 -2 55 -5z m-90 -75 c0 -5 -5 -10 -11 -10 -5 0 -7 5 -4 10 3 6 8 10 11 10 2
0 4 -4 4 -10z m20 -30 c0 -5 -7 -10 -16 -10 -8 0 -12 5 -9 10 3 6 10 10 16 10
5 0 9 -4 9 -10z m-17 -35 c-3 -9 -8 -14 -10 -11 -3 3 -2 9 2 15 9 16 15 13 8
-4z m22 -34 c-3 -6 -11 -11 -17 -11 -6 0 -6 6 2 15 14 17 26 13 15 -4z m5 -39
c0 -5 -9 -17 -20 -27 -20 -18 -20 -17 -20 8 0 20 5 27 20 27 11 0 20 -4 20 -8z
m5 -52 c-3 -5 -11 -10 -16 -10 -6 0 -7 5 -4 10 3 6 11 10 16 10 6 0 7 -4 4
-10z m-5 -45 c-7 -8 -16 -15 -21 -15 -5 0 -9 7 -9 15 0 9 9 15 21 15 18 0 19
-2 9 -15z m288 3 c-3 -7 -12 -14 -21 -16 -12 -2 -15 1 -11 12 7 19 38 22 32 4z
m-118 -3 c0 -2 -13 -11 -30 -20 -30 -16 -40 -9 -18 13 12 12 48 17 48 7z m30
-10 c0 -8 -7 -15 -16 -15 -14 0 -14 3 -4 15 7 8 14 15 16 15 2 0 4 -7 4 -15z
m-114 -10 c-11 -8 -22 -11 -25 -6 -3 4 -13 11 -21 14 -8 3 3 6 25 6 37 0 39
-1 21 -14z m-84 -157 c-7 -7 -12 -8 -12 -2 0 14 12 26 19 19 2 -3 -1 -11 -7
-17z m8 -42 c0 -8 -4 -18 -10 -21 -5 -3 -10 3 -10 14 0 12 5 21 10 21 6 0 10
-6 10 -14z m0 -76 c0 -5 -5 -10 -11 -10 -5 0 -7 5 -4 10 3 6 8 10 11 10 2 0 4
-4 4 -10z m326 -27 c-2 -2 -17 -7 -33 -12 -20 -6 -30 -5 -30 3 0 6 15 11 34
12 18 0 31 -1 29 -3z m64 -12 c0 -11 -4 -23 -10 -26 -6 -4 -10 5 -10 19 0 14
5 26 10 26 6 0 10 -9 10 -19z m-381 -17 c-14 -18 -24 -11 -15 11 3 9 11 13 16
10 8 -5 7 -11 -1 -21z m161 6 c0 -5 -9 -10 -21 -10 -11 0 -17 5 -14 10 3 6 13
10 21 10 8 0 14 -4 14 -10z m175 0 c-3 -5 -12 -10 -18 -10 -7 0 -6 4 3 10 19
12 23 12 15 0z"/>
<path d="M10104 1453 c-4 -14 -1 -92 7 -172 21 -228 18 -308 -15 -376 -39 -78
-59 -89 -149 -81 -116 11 -142 22 -184 72 -41 48 -77 151 -67 190 3 12 -2 66
-11 120 -12 70 -15 121 -10 176 l7 78 -46 0 c-31 0 -48 -5 -52 -14 -3 -8 4
-101 16 -208 37 -345 38 -349 67 -391 32 -46 77 -86 118 -103 33 -13 236 -13
290 1 46 12 103 54 120 89 25 49 36 164 30 298 -3 68 -7 157 -9 198 -2 41 -7
92 -11 113 -7 36 -8 37 -51 37 -39 0 -44 -3 -50 -27z m76 -24 c0 -14 -7 -19
-27 -19 -20 0 -24 3 -16 11 6 6 9 17 6 24 -3 10 2 12 16 8 12 -3 21 -14 21
-24z m-534 -63 c4 -58 -9 -108 -20 -76 -2 8 -7 44 -11 78 -5 56 -4 63 10 60
13 -2 18 -17 21 -62z m523 -48 c-13 -18 -25 -26 -27 -19 -2 7 4 18 13 25 10 7
15 18 11 24 -4 6 -1 22 6 34 l13 23 3 -28 c2 -16 -5 -39 -19 -59z m17 -35
c-10 -10 -19 5 -10 18 6 11 8 11 12 0 2 -7 1 -15 -2 -18z m-533 -37 c6 -16 -2
-56 -12 -56 -3 0 -7 16 -8 35 -2 35 10 47 20 21z m522 -6 c-3 -5 -10 -10 -16
-10 -5 0 -9 5 -9 10 0 6 7 10 16 10 8 0 12 -4 9 -10z m4 -86 c-18 -34 -27 -30
-27 11 0 41 31 69 36 33 2 -12 -2 -32 -9 -44z m-507 -111 c2 -35 1 -63 -4 -63
-12 0 -30 40 -24 55 3 8 0 28 -5 45 -8 22 -8 34 0 44 9 11 9 15 -1 18 -10 4
-10 9 2 23 14 17 15 15 21 -21 4 -21 9 -67 11 -101z m528 73 c0 -16 -27 -29
-42 -20 -7 5 -4 12 7 21 24 17 35 17 35 -1z m-25 -46 c-3 -5 -11 -10 -16 -10
-6 0 -7 5 -4 10 3 6 11 10 16 10 6 0 7 -4 4 -10z m20 -36 c-8 -20 -15 -38 -15
-40 0 -2 -7 -4 -15 -4 -8 0 -15 7 -15 15 0 8 5 15 12 15 6 0 8 3 5 7 -8 7 21
43 35 43 4 0 1 -16 -7 -36z m3 -61 c-2 -10 -14 -20 -28 -22 -25 -3 -25 -3 -6
18 23 26 39 27 34 4z m-485 -64 c16 -16 27 -35 25 -41 -5 -13 19 -43 34 -43
17 0 8 -20 -10 -23 -27 -4 -86 67 -70 85 8 10 7 13 -5 13 -21 0 -41 37 -32 58
6 16 8 15 18 -2 7 -10 25 -31 40 -47z m481 10 c-3 -5 -17 -9 -32 -8 -15 0 -21
3 -14 6 6 2 10 8 7 12 -2 5 7 6 20 3 14 -2 22 -8 19 -13z m-16 -41 c-7 -20
-48 -23 -48 -4 0 11 9 16 26 16 16 0 24 -5 22 -12z m-20 -45 c2 -9 -7 -13 -27
-13 -30 0 -39 9 -24 24 11 10 46 3 51 -11z m-50 -31 c25 -17 -39 -32 -158 -38
-116 -5 -160 -1 -160 16 0 13 44 20 51 8 4 -6 15 -8 25 -4 9 4 21 2 24 -5 6
-8 13 -8 28 0 11 6 40 11 64 11 24 0 50 5 58 10 18 12 50 13 68 2z"/>
<path d="M9125 1436 c-94 -24 -173 -76 -233 -156 -6 -9 -18 -49 -26 -90 -12
-59 -14 -94 -6 -165 5 -49 10 -100 10 -112 0 -20 96 -174 102 -163 2 2 34 -17
72 -44 l70 -47 81 2 c45 1 104 6 131 10 27 5 66 11 88 15 56 8 86 44 81 97 -3
23 -7 91 -9 151 -3 60 -8 112 -11 115 -7 7 -185 2 -197 -5 -14 -9 -9 -72 8
-88 8 -9 28 -16 44 -16 25 0 31 -5 39 -37 6 -21 11 -59 11 -85 0 -46 -1 -47
-36 -54 -20 -4 -81 -4 -135 -1 -124 6 -156 24 -196 105 -22 44 -29 75 -32 136
-7 163 33 243 152 300 67 32 77 34 142 29 39 -3 93 -6 120 -7 l50 -1 3 37 c3
29 -1 40 -20 51 -55 35 -207 47 -303 23z m-9 -64 c-4 -3 -12 0 -19 7 -9 9 -9
14 3 21 11 7 16 5 18 -6 2 -9 1 -18 -2 -22z m74 28 c0 -5 -4 -10 -9 -10 -6 0
-13 5 -16 10 -3 6 1 10 9 10 9 0 16 -4 16 -10z m27 -12 c-3 -8 -6 -5 -6 6 -1
11 2 17 5 13 3 -3 4 -12 1 -19z m-76 -31 c-8 -8 -11 -5 -11 9 0 27 14 41 18
19 2 -9 -1 -22 -7 -28z m266 7 c-9 -9 -28 6 -21 18 4 6 10 6 17 -1 6 -6 8 -13
4 -17z m-347 -5 c0 -12 -4 -17 -11 -13 -8 4 -9 -1 -4 -16 5 -15 4 -20 -4 -16
-6 4 -15 -4 -21 -19 -6 -15 -15 -23 -21 -19 -16 9 -30 -18 -18 -33 16 -19 1
-37 -19 -21 -13 11 -15 10 -9 -11 4 -15 0 -29 -9 -39 -8 -8 -13 -21 -10 -28 4
-10 -3 -14 -24 -14 -36 0 -37 11 -11 81 24 61 47 89 75 90 12 0 15 3 8 6 -10
4 -9 9 4 24 9 10 21 16 26 13 5 -4 16 3 24 15 19 26 24 26 24 0z m40 -4 c10
-12 10 -15 -4 -15 -9 0 -16 7 -16 15 0 8 2 15 4 15 2 0 9 -7 16 -15z m-165
-267 c15 -22 14 -23 -5 -26 -25 -4 -26 -22 -1 -22 17 0 19 -8 19 -59 0 -48 6
-71 32 -120 18 -33 48 -72 66 -86 39 -30 43 -45 13 -45 -24 0 -147 123 -154
154 -16 80 -15 95 2 105 15 9 15 10 2 11 -10 0 -19 16 -26 47 -6 26 -9 51 -7
55 10 16 43 7 59 -14z m435 -72 c0 -8 -63 -36 -68 -31 -10 10 22 35 44 35 13
0 24 -2 24 -4z m80 -50 c0 -37 -5 -60 -17 -73 -10 -10 -14 -13 -9 -6 5 8 4 13
-4 13 -9 0 -8 5 3 18 22 24 21 32 -3 32 -21 0 -27 15 -10 25 18 11 11 27 -10
22 -11 -3 -20 -2 -20 2 0 14 13 21 42 21 27 0 28 -1 28 -54z m-10 -121 c-7 -8
-16 -15 -21 -15 -5 0 -1 9 8 20 9 11 19 17 21 15 3 -3 -1 -11 -8 -20z m0 -35
c-8 -5 -17 -7 -19 -4 -3 3 1 9 9 14 8 5 17 7 19 4 3 -3 -1 -9 -9 -14z m20 -40
c0 -5 -6 -10 -14 -10 -8 0 -18 5 -21 10 -3 6 3 10 14 10 12 0 21 -4 21 -10z
m-20 -30 c0 -5 -12 -10 -26 -10 -14 0 -23 4 -19 10 3 6 15 10 26 10 10 0 19
-4 19 -10z m-312 -22 c-3 -7 -11 -13 -18 -13 -7 0 -15 6 -17 13 -3 7 4 12 17
12 13 0 20 -5 18 -12z m52 3 c0 -5 -7 -11 -15 -15 -15 -5 -20 5 -8 17 9 10 23
9 23 -2z m48 -9 c3 -9 -2 -13 -14 -10 -9 1 -19 9 -22 16 -3 9 2 13 14 10 9 -1
19 -9 22 -16z m112 8 c-36 -11 -112 -11 -85 0 11 5 40 8 65 8 37 0 41 -1 20
-8z"/>
<path d="M4435 1370 c-35 -37 -44 -37 -102 -3 -45 26 -47 26 -102 12 -44 -11
-60 -21 -78 -48 -13 -19 -22 -39 -20 -45 7 -21 58 -19 78 3 24 25 34 26 96 5
67 -23 119 -19 160 12 21 16 32 32 29 41 -3 8 -1 11 4 8 13 -8 13 1 0 26 -15
27 -32 24 -65 -11z m-137 -27 c-10 -2 -28 -2 -40 0 -13 2 -5 4 17 4 22 1 32
-1 23 -4z m-89 -6 c-2 -1 -13 -9 -24 -17 -19 -14 -19 -14 -6 3 7 9 18 17 24
17 6 0 8 -1 6 -3z"/>
<path d="M8341 1387 c-7 -9 -8 -32 -1 -73 10 -61 32 -280 32 -324 1 -14 0 -70
-1 -126 -4 -134 6 -191 33 -206 30 -17 275 -11 328 8 22 8 51 14 63 14 35 0
47 21 34 60 -11 30 -14 31 -43 24 -17 -4 -90 -9 -163 -10 l-132 -2 -6 42 c-4
23 -8 150 -9 281 -1 171 -6 252 -15 283 -14 42 -15 42 -61 42 -27 0 -52 -6
-59 -13z m94 -63 c7 -50 -5 -74 -36 -74 -18 0 -19 2 -4 30 15 29 12 56 -5 45
-9 -6 -21 31 -12 39 3 3 15 6 28 6 18 0 23 -7 29 -46z m5 -111 c0 -18 -35 -83
-45 -83 -3 0 -5 9 -5 20 0 11 7 20 15 20 18 0 20 17 3 23 -10 3 -10 7 1 20 18
22 31 22 31 0z m10 -82 c0 -17 -18 -31 -41 -31 -11 0 22 49 34 50 4 0 7 -9 7
-19z m0 -167 c0 -42 -15 -74 -36 -74 -12 0 -12 4 -4 20 6 11 8 31 4 46 -4 17
-2 29 7 35 24 15 29 10 29 -27z m0 -92 c0 -4 -7 -18 -16 -30 -8 -12 -11 -22
-6 -22 13 0 8 -68 -5 -81 -16 -16 -37 95 -23 121 10 19 50 29 50 12z m0 -142
c0 -5 -5 -10 -11 -10 -5 0 -7 5 -4 10 3 6 8 10 11 10 2 0 4 -4 4 -10z m344
-10 c-12 -12 -144 -30 -144 -19 0 4 21 11 48 14 26 3 54 8 62 9 33 8 44 6 34
-4z m-279 -12 c57 -2 18 -17 -42 -17 -29 1 -53 3 -53 5 0 7 44 22 52 18 4 -3
23 -5 43 -6z m123 1 c-4 -13 -68 -21 -68 -9 0 11 19 18 48 19 14 1 22 -4 20
-10z"/>
<path d="M8097 1343 c-3 -16 1 -93 9 -173 24 -249 18 -322 -32 -402 -34 -54
-58 -61 -167 -46 -89 11 -93 13 -140 57 -32 31 -51 59 -58 86 -17 63 -32 239
-33 367 -1 130 -3 133 -62 122 -33 -6 -34 -7 -34 -58 0 -28 5 -85 10 -126 6
-41 17 -141 24 -222 16 -159 26 -190 85 -251 58 -62 80 -69 210 -70 160 0 198
10 253 65 54 53 66 157 54 433 -8 153 -14 223 -22 236 -3 5 -25 9 -48 9 -40 0
-44 -3 -49 -27z m73 -3 c9 0 19 -78 13 -97 -3 -6 -11 -9 -19 -6 -10 4 -11 10
-4 23 15 28 12 40 -9 40 -14 0 -19 7 -17 25 1 17 6 23 14 20 8 -3 17 -5 22 -5z
m-527 -72 c4 -47 -7 -108 -18 -97 -2 3 -5 26 -6 52 -2 27 -6 50 -11 53 -16 10
-8 44 11 44 15 0 19 -10 24 -52z m507 8 c0 -3 -4 -8 -10 -11 -5 -3 -10 -1 -10
4 0 6 5 11 10 11 6 0 10 -2 10 -4z m7 -73 c-9 -9 -20 -13 -24 -9 -4 4 -1 11 7
16 25 16 35 11 17 -7z m23 -18 c0 -8 -4 -15 -10 -15 -5 0 -7 7 -4 15 4 8 8 15
10 15 2 0 4 -7 4 -15z m-530 -65 c0 -16 -5 -32 -12 -36 -7 -5 -9 -2 -5 8 3 9
1 20 -4 25 -12 12 -1 45 12 37 5 -3 9 -18 9 -34z m515 10 c-3 -5 -11 -10 -16
-10 -6 0 -7 5 -4 10 3 6 11 10 16 10 6 0 7 -4 4 -10z m9 -91 c-13 -15 -20 -17
-28 -8 -8 8 -7 13 2 16 9 4 10 8 2 18 -8 10 -5 19 12 35 l23 21 3 -31 c2 -20
-3 -39 -14 -51z m-510 -30 c9 -88 8 -139 -4 -139 -10 0 -20 32 -20 65 1 11 -2
42 -4 69 -3 27 -3 52 0 57 13 21 22 5 28 -52z m526 -3 c0 -17 -27 -29 -35 -16
-4 6 -3 15 0 20 9 15 35 12 35 -4z m10 -46 c0 -24 -31 -81 -42 -78 -20 7 -21
28 -1 29 11 0 13 3 5 6 -10 4 -9 10 5 26 17 19 17 20 1 14 -10 -4 -18 -2 -18
3 0 6 11 10 25 10 14 0 25 -5 25 -10z m-10 -94 c0 -14 -29 -31 -38 -21 -6 6
18 35 29 35 5 0 9 -6 9 -14z m-513 -23 c3 -10 19 -30 35 -45 16 -16 26 -32 23
-38 -3 -5 -1 -10 4 -10 6 0 11 -7 11 -15 0 -8 7 -15 15 -15 8 0 15 -7 15 -15
0 -25 -32 -17 -67 17 -35 34 -41 53 -20 61 7 3 1 9 -14 15 -27 11 -43 37 -33
53 9 15 24 10 31 -8z m513 -33 c0 -5 -12 -10 -26 -10 -14 0 -23 4 -19 10 3 6
15 10 26 10 10 0 19 -4 19 -10z m-10 -40 c0 -5 -11 -10 -24 -10 -14 0 -28 5
-31 10 -4 6 7 10 24 10 17 0 31 -4 31 -10z m-25 -39 c3 -5 0 -13 -5 -16 -16
-10 -62 4 -55 15 8 13 52 13 60 1z m-45 -40 c0 -18 -59 -30 -175 -36 -117 -6
-155 1 -141 24 9 14 46 15 46 1 0 -6 11 -8 25 -4 16 4 25 2 25 -5 0 -8 8 -7
28 2 15 7 42 12 60 10 19 -1 41 1 50 7 21 12 82 13 82 1z"/>
<path d="M7367 1333 c-3 -5 -10 -28 -17 -53 -15 -57 -103 -362 -131 -455 -35
-114 -37 -119 -54 -105 -19 16 -73 129 -136 285 -28 72 -67 160 -85 196 -19
37 -34 73 -34 82 0 9 -5 19 -10 22 -15 10 -90 -5 -90 -17 0 -18 71 -191 97
-234 13 -23 37 -86 54 -140 17 -54 50 -133 74 -174 24 -41 49 -92 56 -112 16
-47 50 -63 110 -51 51 10 82 48 93 113 3 22 21 78 40 123 18 45 43 127 55 182
24 107 56 226 72 263 5 13 9 36 9 52 0 29 -1 30 -49 30 -28 0 -52 -3 -54 -7z
m73 -31 c0 -4 -7 -18 -16 -30 -9 -13 -16 -38 -16 -57 0 -21 -6 -36 -15 -40
-24 -9 -29 4 -7 20 18 14 18 14 0 15 -19 0 -18 16 4 75 9 23 50 37 50 17z
m-560 -35 c0 -1 4 -17 9 -34 13 -46 -5 -52 -24 -7 -18 45 -18 44 0 44 8 0 15
-1 15 -3z m40 -92 c0 -8 -7 -15 -15 -15 -9 0 -12 6 -9 15 4 8 10 15 15 15 5 0
9 -7 9 -15z m446 -30 c-21 -16 -32 -13 -21 4 3 6 14 11 23 11 15 -1 15 -2 -2
-15z m-441 -5 c-3 -5 -14 -10 -23 -9 -14 0 -13 2 3 9 27 11 27 11 20 0z m459
-34 c-7 -28 -12 -31 -34 -16 -13 9 -11 13 9 30 28 24 34 21 25 -14z m-430 -2
c3 -9 4 -19 1 -24 -3 -4 2 -13 10 -20 17 -14 20 -30 5 -30 -5 0 -10 7 -10 15
0 8 -7 15 -15 15 -8 0 -12 6 -9 14 3 8 0 17 -5 21 -12 7 -6 25 9 25 4 0 11 -7
14 -16z m406 -44 c0 -4 -7 -11 -16 -14 -28 -11 -35 -7 -24 14 10 18 40 18 40
0z m0 -40 c0 -5 -9 -10 -21 -10 -11 0 -17 5 -14 10 3 6 13 10 21 10 8 0 14 -4
14 -10z m-370 -25 c10 -12 10 -15 -3 -15 -8 0 -17 7 -21 15 -3 8 -2 15 3 15 5
0 14 -7 21 -15z m340 -4 c0 -10 -30 -24 -37 -17 -3 3 -2 9 2 15 8 13 35 15 35
2z m18 -23 c-3 -7 -15 -14 -29 -16 -23 -2 -23 -2 -5 13 24 18 39 20 34 3z
m-328 -27 c0 -28 -17 -35 -29 -12 -15 27 -14 31 9 31 13 0 20 -7 20 -19z m284
-28 c-13 -10 -20 -10 -23 -2 -4 14 19 30 33 22 5 -3 1 -12 -10 -20z m-254 -30
c0 -9 -13 -10 -38 -4 -1 1 2 11 9 22 9 17 13 19 20 8 5 -8 9 -19 9 -26z m264
-15 c-25 -26 -51 -40 -58 -29 -7 10 33 57 54 63 23 7 24 -11 4 -34z m-264 -23
c0 -8 4 -15 9 -15 5 0 12 -7 15 -16 4 -11 0 -14 -17 -12 -12 2 -25 8 -29 13
-13 17 -9 45 7 45 8 0 15 -7 15 -15z m250 -30 c-7 -8 -20 -15 -29 -15 -12 1
-11 5 8 21 26 22 41 18 21 -6z m-202 -57 c3 -15 -1 -16 -19 -9 -32 11 -38 34
-8 29 13 -1 25 -11 27 -20z m162 -18 c0 -5 -8 -10 -17 -10 -15 0 -16 2 -3 10
19 12 20 12 20 0z m-132 -50 c26 -46 27 -50 8 -50 -14 0 -57 75 -48 85 11 10
17 4 40 -35z m132 16 c0 -3 -4 -8 -10 -11 -5 -3 -10 -1 -10 4 0 6 5 11 10 11
6 0 10 -2 10 -4z m-28 -48 c-7 -7 -12 -8 -12 -2 0 14 12 26 19 19 2 -3 -1 -11
-7 -17z m-62 -33 c-7 -8 -17 -15 -22 -15 -6 0 -5 7 2 15 7 8 17 15 22 15 6 0
5 -7 -2 -15z"/>
<path d="M6566 1293 c-16 -4 -18 -12 -12 -56 17 -156 36 -376 41 -477 3 -63 8
-139 11 -167 6 -51 7 -53 38 -53 17 0 42 -3 55 -7 l23 -6 -6 109 c-4 60 -9
136 -11 169 -3 33 -7 106 -10 163 -3 57 -12 145 -20 196 -7 52 -11 103 -8 115
5 19 1 21 -38 20 -24 -1 -52 -3 -63 -6z m59 -62 c0 -14 -6 -26 -14 -29 -10 -3
-12 0 -8 12 4 9 2 16 -3 16 -6 0 -10 7 -10 16 0 9 7 14 18 12 10 -2 17 -12 17
-27z m-6 -63 c-10 -18 -9 -20 5 -15 10 4 15 3 11 -3 -9 -15 -25 -12 -32 6 -3
9 0 20 8 25 20 13 21 11 8 -13z m21 -59 c0 -19 -21 -50 -31 -44 -5 4 -9 17 -9
31 0 17 5 24 20 24 11 0 20 -5 20 -11z m20 -54 c0 -9 -9 -15 -21 -15 -18 0
-19 2 -9 15 7 8 16 15 21 15 5 0 9 -7 9 -15z m0 -44 c0 -6 -11 -23 -25 -38
l-24 -28 -1 31 c0 17 3 34 7 37 10 10 43 8 43 -2z m10 -73 c0 -5 -12 -8 -27
-8 -26 0 -26 0 -8 20 14 16 20 17 27 8 4 -7 8 -16 8 -20z m-26 -24 c13 -5 14
-9 5 -20 -16 -20 -29 -17 -29 6 0 22 1 23 24 14z m26 -53 c0 -5 -9 -11 -20
-14 -22 -6 -26 3 -8 21 11 11 28 7 28 -7z m-20 -51 c-9 -16 -8 -18 5 -14 9 4
15 0 15 -9 0 -25 -27 -28 -34 -4 -9 35 -7 47 9 47 13 0 14 -4 5 -20z m20 -66
c0 -3 -5 -14 -10 -24 -8 -16 -8 -18 5 -14 8 4 15 2 16 -2 0 -5 1 -34 2 -64 2
-52 1 -55 -23 -55 -20 0 -27 7 -34 36 -5 20 -6 57 -2 82 6 37 11 47 27 47 10
0 19 -3 19 -6z"/>
<path d="M5983 1260 c-51 -5 -110 -14 -130 -19 l-38 -10 3 -118 c5 -260 22
-597 30 -605 4 -4 23 -3 42 2 18 5 106 19 194 31 268 34 295 47 351 161 61
127 69 228 25 342 -32 83 -92 145 -181 186 -82 38 -146 44 -296 30z m122 -29
c-12 -11 -32 -14 -60 -11 -11 2 -2 6 20 10 22 4 42 8 45 9 2 0 0 -3 -5 -8z
m65 -13 c0 -5 -11 -8 -25 -8 -14 0 -25 4 -25 9 0 5 11 8 25 7 14 0 25 -4 25
-8z m-214 -7 c-3 -4 -26 -16 -51 -25 -40 -16 -44 -20 -34 -38 6 -11 8 -26 5
-34 -3 -8 -1 -25 4 -39 5 -14 8 -25 6 -25 -3 0 -12 -3 -20 -6 -14 -6 -16 4
-15 70 1 42 6 80 13 85 6 5 29 11 51 14 22 2 41 4 43 5 2 1 1 -2 -2 -7z m288
-10 c3 -5 21 -12 40 -15 44 -8 131 -98 123 -127 -3 -12 0 -19 9 -19 9 0 14
-11 14 -30 0 -17 5 -30 13 -31 6 0 3 -4 -8 -9 -11 -5 -14 -9 -7 -9 21 -1 13
-21 -8 -21 -17 0 -19 5 -14 25 5 19 2 25 -10 25 -9 0 -16 5 -16 10 0 6 5 10
11 10 6 0 1 12 -10 26 -12 15 -21 32 -21 39 0 7 -13 25 -30 38 -16 14 -30 30
-30 36 0 6 -7 8 -15 5 -8 -4 -15 -1 -15 5 0 6 -9 11 -19 11 -11 0 -23 5 -26
10 -3 6 -15 10 -26 10 -11 0 -17 5 -14 10 8 12 52 13 59 1z m-86 -36 c45 -16
90 -41 107 -59 6 -6 22 -19 37 -28 33 -22 68 -112 68 -178 0 -120 -36 -192
-120 -235 -42 -22 -166 -44 -247 -45 l-62 0 -5 33 c-13 83 -24 492 -13 503 24
25 174 30 235 9z m-284 -141 c17 -6 22 -34 7 -34 -5 0 -4 -17 1 -40 11 -42 4
-80 -11 -64 -10 10 -26 144 -18 144 3 0 12 -3 21 -6z m586 -101 c0 -20 -28
-53 -47 -53 -18 0 -16 13 8 44 23 30 39 34 39 9z m-575 -65 c3 -12 13 -171 15
-239 0 -37 34 -41 206 -19 129 16 166 27 215 62 10 6 24 8 35 3 16 -6 10 -12
-35 -33 -60 -28 -218 -58 -351 -67 -105 -7 -97 -21 -106 173 -4 95 -3 132 5
132 7 0 13 -6 16 -12z m565 -14 c0 -9 -8 -23 -17 -30 -11 -8 -13 -13 -5 -14
15 0 16 -22 0 -38 -6 -6 -13 -22 -15 -34 -5 -33 -22 -48 -55 -48 l-30 0 31 35
c17 20 31 42 31 51 0 37 26 94 42 94 10 0 18 -7 18 -16z"/>
<path d="M4995 1204 c-27 -7 -62 -17 -77 -20 -35 -8 -120 -90 -146 -140 -26
-52 -43 -137 -45 -227 -1 -58 5 -89 28 -152 36 -99 76 -140 170 -177 149 -59
397 -26 452 59 19 29 41 85 48 118 23 127 23 243 -1 324 -12 42 -29 69 -77
119 -34 35 -70 68 -81 74 -18 10 -177 39 -206 37 -8 0 -37 -7 -65 -15z m265
-74 c62 -51 71 -64 47 -68 -9 -2 -17 1 -17 7 0 5 -20 19 -45 30 -25 11 -48 26
-51 34 -3 9 -13 13 -25 10 -10 -3 -29 1 -41 9 -15 9 -32 12 -48 7 -14 -4 -39
-7 -56 -8 -17 -1 -37 -8 -44 -17 -8 -8 -25 -14 -39 -12 -20 2 -25 -1 -23 -14
2 -13 -4 -18 -23 -18 -14 0 -25 5 -25 10 0 6 7 10 15 10 8 0 15 5 15 10 0 14
62 51 77 45 7 -2 15 1 19 7 4 6 43 9 108 6 l101 -3 55 -45z m-97 -37 c114 -30
142 -80 158 -281 10 -120 10 -124 -15 -178 -35 -75 -83 -97 -213 -98 -85 0
-95 3 -133 29 -23 16 -46 37 -51 47 -5 10 -16 18 -24 18 -22 0 -58 148 -56
227 3 126 119 254 214 236 13 -3 28 0 31 6 9 14 15 14 89 -6z m-298 -33 c3 -5
2 -10 -4 -10 -5 0 -13 5 -16 10 -3 6 -2 10 4 10 5 0 13 -4 16 -10z m517 -40
c23 -47 22 -50 -12 -50 -32 0 -37 8 -17 29 10 11 9 13 -5 8 -18 -6 -35 24 -23
43 12 20 40 5 57 -30z m-557 10 c-3 -5 -10 -10 -16 -10 -5 0 -9 5 -9 10 0 6 7
10 16 10 8 0 12 -4 9 -10z m-25 -70 c0 -5 -7 -10 -15 -10 -8 0 -15 5 -15 10 0
6 7 10 15 10 8 0 15 -4 15 -10z m610 -35 c0 -28 -33 -50 -58 -39 -14 6 -13 8
8 14 16 5 19 8 8 9 -10 1 -18 5 -18 11 0 11 29 29 48 30 6 0 12 -11 12 -25z
m-620 -55 c0 -4 -7 -10 -15 -14 -10 -4 -15 1 -15 14 0 13 5 18 15 14 8 -4 15
-10 15 -14z m628 -2 c-2 -16 -10 -22 -30 -23 -16 0 -28 3 -28 7 0 6 47 36 58
38 2 0 2 -10 0 -22z m-3 -114 c-3 -19 -10 -34 -15 -34 -4 0 -14 -2 -22 -5 -9
-4 -14 3 -16 20 -1 16 3 25 13 25 7 0 16 4 19 9 3 4 -7 6 -22 5 -15 -2 -21 -1
-14 2 10 5 10 9 1 20 -12 15 -6 19 36 26 23 4 30 -18 20 -68z m-639 19 c-10
-10 -19 5 -10 18 6 11 8 11 12 0 2 -7 1 -15 -2 -18z m24 -23 c0 -5 -5 -10 -11
-10 -5 0 -7 5 -4 10 3 6 8 10 11 10 2 0 4 -4 4 -10z m587 -97 c-4 -21 -15 -49
-25 -63 -23 -31 -80 -70 -101 -70 -12 1 -11 3 4 12 34 18 90 84 87 102 -2 9 1
16 6 16 6 0 8 9 5 20 -4 14 0 20 12 20 15 0 17 -6 12 -37z m-517 -78 c0 -8 -4
-15 -9 -15 -5 0 -11 7 -15 15 -3 9 0 15 9 15 8 0 15 -7 15 -15z"/>
<path d="M4285 1148 c-7 -18 -16 -51 -20 -73 -4 -22 -13 -49 -20 -60 -7 -11
-16 -36 -20 -55 -4 -19 -22 -82 -40 -140 -19 -58 -39 -132 -45 -164 -7 -33
-23 -96 -36 -140 -13 -44 -24 -85 -24 -91 0 -11 78 -31 86 -22 2 1 19 52 38
112 l34 110 68 1 c38 1 92 4 120 8 49 7 51 6 76 -26 14 -19 39 -64 56 -100
l29 -65 57 -7 c92 -10 95 1 35 113 -22 42 -46 102 -54 134 -7 31 -25 71 -39
88 -14 17 -26 40 -26 52 0 12 -16 53 -35 90 -19 37 -34 71 -33 75 3 12 -69
157 -86 175 -11 11 -33 17 -62 17 -41 0 -46 -3 -59 -32z m122 -37 c27 -31 29
-49 6 -58 -15 -6 -15 -7 1 -13 15 -5 14 -8 -8 -29 -23 -22 -26 -22 -32 -6 -4
10 -1 21 7 26 11 7 11 9 1 9 -7 0 -32 -20 -56 -45 -25 -25 -49 -45 -55 -45
-19 0 0 64 28 89 14 13 21 26 15 28 -10 3 -9 36 1 70 7 20 66 3 92 -26z m63
-131 c0 -9 5 -21 11 -27 19 -19 14 -73 -9 -96 l-22 -21 0 21 c0 12 8 27 18 33
15 10 14 11 -5 7 -18 -4 -23 -1 -23 14 0 12 -5 16 -15 13 -11 -5 -15 1 -15 20
0 14 -5 26 -12 26 -6 0 1 14 17 30 27 29 31 30 42 14 7 -10 13 -25 13 -34z
m-150 -27 c0 -16 -16 -28 -40 -30 l-25 -3 24 20 c24 21 41 26 41 13z m126
-181 l6 -29 -77 -8 c-45 -4 -81 -3 -86 2 -6 6 0 28 15 59 14 27 31 75 38 106
l12 57 43 -78 c24 -44 46 -92 49 -109z m-175 118 c-25 -22 -41 -26 -41 -10 0
11 30 29 50 29 10 0 8 -6 -9 -19z m19 -18 c0 -14 -24 -32 -43 -32 -17 0 -17 2
4 20 26 21 39 25 39 12z m240 -43 c0 -10 -7 -25 -16 -33 -19 -20 -40 -11 -23
10 9 11 8 14 -4 14 -14 0 -14 3 0 32 15 29 17 30 30 13 7 -11 13 -27 13 -36z
m-281 -26 c-12 -15 -12 -16 6 -9 11 4 16 4 12 -1 -5 -4 -21 -8 -36 -9 -23 -1
-28 2 -24 17 4 12 14 19 30 19 23 0 24 -2 12 -17z m311 -53 c6 -21 8 -51 4
-65 -5 -20 -3 -24 10 -19 12 5 16 0 16 -23 0 -28 -15 -53 -32 -53 -14 0 -8 22
10 37 16 13 15 13 -7 7 -19 -5 -23 -3 -18 9 4 11 2 14 -9 10 -22 -8 -17 10 7
25 28 18 18 26 -15 11 -38 -18 -42 -5 -11 33 23 28 25 34 11 36 -17 4 -21 14
-9 25 16 17 33 4 43 -33z m-326 -5 c-6 -14 -35 -35 -48 -35 -14 0 -5 30 12 39
25 15 42 13 36 -4z m213 -51 c4 -13 -40 -34 -69 -34 -17 0 -18 2 -8 15 7 9 15
13 18 11 2 -3 11 2 19 10 16 16 34 15 40 -2z m-147 -13 c0 -10 -25 -21 -48
-21 -15 1 -14 3 2 15 22 17 46 20 46 6z m45 -1 c-3 -5 -11 -10 -16 -10 -6 0
-7 5 -4 10 3 6 11 10 16 10 6 0 7 -4 4 -10z m-148 -27 c-9 -9 -19 -14 -23 -11
-10 10 6 28 24 28 15 0 15 -1 -1 -17z m3 -28 c-7 -8 -18 -15 -24 -15 -6 0 -2
7 8 15 25 19 32 19 16 0z m406 -41 c-25 -18 -31 -12 -16 16 9 17 15 19 23 10
9 -9 7 -15 -7 -26z m-424 -6 c-6 -6 -15 -8 -19 -4 -4 4 -1 11 7 16 19 12 27 3
12 -12z m433 -28 c-10 -11 -22 -17 -27 -14 -12 8 11 34 30 34 13 0 12 -3 -3
-20z m45 -53 c0 -12 -6 -17 -17 -15 -10 2 -17 11 -17 21 1 9 -3 17 -8 17 -6 0
-5 7 3 16 12 14 14 14 26 -2 7 -10 13 -26 13 -37z m-505 6 c-4 -10 -10 -26
-12 -35 -3 -10 -9 -18 -14 -18 -12 0 -11 27 1 51 13 24 35 26 25 2z"/>
<path d="M3856 1135 c-16 -16 -16 -25 2 -300 9 -144 8 -169 -12 -162 -18 6
-166 198 -234 304 -35 54 -77 113 -93 131 -26 29 -34 32 -89 32 l-61 0 5 -107
c2 -60 9 -225 14 -369 6 -159 14 -269 21 -283 14 -25 66 -29 96 -8 15 12 18
29 19 123 1 60 -3 138 -7 174 -21 158 -24 196 -18 213 6 16 14 11 54 -31 25
-28 62 -74 82 -104 55 -82 84 -121 105 -141 11 -9 26 -30 34 -46 8 -15 26 -36
40 -45 15 -9 26 -23 26 -30 0 -8 23 -33 51 -55 40 -32 60 -41 90 -41 37 0 38
1 29 25 -16 42 -29 216 -23 323 3 69 0 135 -11 200 -8 53 -18 123 -22 155 l-6
57 -38 0 c-21 0 -45 -7 -54 -15z m-436 -35 c0 -5 -4 -10 -10 -10 -5 0 -10 5
-10 10 0 6 5 10 10 10 6 0 10 -4 10 -10z m506 -4 c5 -13 -31 -96 -41 -96 -3 0
-5 12 -4 28 1 15 1 32 -1 37 -1 6 -2 18 -1 28 1 21 39 23 47 3z m-497 -36
c-13 -16 -25 -28 -27 -25 -7 7 27 55 39 55 5 0 0 -13 -12 -30z m43 8 c-7 -7
-12 -8 -12 -2 0 14 12 26 19 19 2 -3 -1 -11 -7 -17z m40 -33 c0 -5 -24 -22
-53 -37 l-54 -28 45 40 c43 38 61 46 62 25z m-82 -20 c-7 -9 -15 -13 -19 -10
-3 3 1 10 9 15 21 14 24 12 10 -5z m132 -32 c38 -41 61 -81 53 -93 -11 -17
-35 -11 -35 9 0 12 -7 18 -17 17 -12 0 -19 7 -21 22 -2 12 -9 22 -17 22 -18 0
-28 32 -13 42 19 12 22 11 50 -19z m342 -5 c-10 -20 -19 -28 -22 -20 -2 7 4
22 14 33 25 27 27 24 8 -13z m26 -23 c0 -8 -4 -15 -10 -15 -5 0 -10 7 -10 15
0 8 5 15 10 15 6 0 10 -7 10 -15z m-475 -15 c8 -26 -29 -79 -39 -54 -10 26 -7
62 7 67 21 9 26 7 32 -13z m463 -40 c-14 -22 -24 -25 -33 -10 -9 15 4 30 26
30 17 0 18 -3 7 -20z m17 -37 c-17 -12 -17 -13 -2 -13 22 0 21 -6 -4 -46 -11
-19 -16 -34 -10 -34 5 0 15 8 20 18 6 10 11 12 11 4 0 -7 -8 -25 -17 -39 -17
-26 -17 -27 0 -20 11 4 17 2 17 -8 0 -21 -30 -19 -46 3 -16 20 -18 98 -4 107
6 4 7 11 4 17 -9 13 25 40 39 31 6 -3 2 -12 -8 -20z m-305 8 c0 -12 -20 -25
-27 -18 -7 7 6 27 18 27 5 0 9 -4 9 -9z m-180 -26 c-7 -9 -15 -13 -19 -10 -3
3 1 10 9 15 21 14 24 12 10 -5z m210 -21 c0 -8 -7 -14 -15 -14 -8 0 -15 9 -15
20 0 13 5 18 15 14 8 -4 15 -12 15 -20z m-200 2 c0 -2 -8 -10 -17 -17 -16 -13
-17 -12 -4 4 13 16 21 21 21 13z m220 -34 c0 -13 -12 -22 -22 -16 -10 6 -1 24
13 24 5 0 9 -4 9 -8z m-220 -9 c0 -5 -4 -15 -10 -23 -11 -18 -25 -7 -17 15 6
15 27 21 27 8z m258 -41 c2 -20 -1 -32 -8 -32 -7 0 -10 7 -6 15 3 9 0 15 -9
15 -15 0 -20 21 -8 34 14 13 28 -1 31 -32z m-257 -5 c-10 -9 -11 -8 -5 6 3 10
9 15 12 12 3 -3 0 -11 -7 -18z m335 -80 c8 -4 14 -15 14 -24 0 -9 3 -14 6 -10
4 3 13 -1 22 -9 9 -10 11 -19 5 -25 -11 -11 -43 -2 -43 13 0 13 -26 38 -39 38
-6 0 -11 7 -11 15 0 8 -4 15 -10 15 -11 0 -14 43 -3 53 3 4 15 -8 26 -26 11
-17 26 -36 33 -40z m-346 38 c-7 -9 -15 -13 -17 -11 -7 7 7 26 19 26 6 0 6 -6
-2 -15z m486 -22 c-3 -37 -36 -44 -36 -8 0 18 5 25 19 25 12 0 18 -7 17 -17z
m-466 -3 c0 -5 -5 -10 -11 -10 -5 0 -7 5 -4 10 3 6 8 10 11 10 2 0 4 -4 4 -10z
m480 -65 c0 -40 -17 -82 -36 -89 -18 -7 -18 5 1 30 8 10 15 22 15 27 0 13 -27
7 -41 -10 -10 -11 -10 -14 -1 -9 20 12 14 -9 -9 -30 -22 -19 -22 -19 -14 5 4
15 3 21 -3 17 -5 -3 -15 1 -22 9 -10 12 -9 16 2 20 8 3 19 5 24 4 23 -4 33 3
43 31 14 43 41 40 41 -5z m-500 21 c0 -3 -4 -8 -10 -11 -5 -3 -10 -1 -10 4 0
6 5 11 10 11 6 0 10 -2 10 -4z m26 -33 c-10 -10 -19 5 -10 18 6 11 8 11 12 0
2 -7 1 -15 -2 -18z m-23 -75 c-3 -27 -10 -48 -14 -48 -14 0 -11 88 4 93 16 6
16 8 10 -45z m28 15 c-8 -15 -10 -15 -11 -2 0 17 10 32 18 25 2 -3 -1 -13 -7
-23z m464 -42 c-3 -6 -11 -11 -17 -11 -6 0 -6 6 2 15 14 17 26 13 15 -4z
m-455 -11 c0 -5 -8 -10 -17 -10 -15 0 -16 2 -3 10 19 12 20 12 20 0z m467 -25
c0 -8 -6 -15 -14 -15 -17 0 -17 17 0 23 6 3 12 6 13 6 0 1 1 -6 1 -14z m-494
-27 c-24 -23 -40 -20 -30 7 4 8 17 15 29 15 l22 0 -21 -22z"/>
<path d="M12914 996 c-3 -8 -4 -31 -2 -52 3 -39 3 -39 51 -42 l47 -3 0 49 c0
43 -3 50 -22 56 -38 10 -68 7 -74 -8z m56 -41 c0 -8 -4 -15 -10 -15 -5 0 -10
7 -10 15 0 8 5 15 10 15 6 0 10 -7 10 -15z"/>
</g>
</svg>
